<?xml version="1.0" encoding="utf-8"?>
<!-- Generator: Adobe Illustrator 16.0.0, SVG Export Plug-In . SVG Version: 6.00 Build 0)  -->
<!DOCTYPE svg PUBLIC "-//W3C//DTD SVG 1.1//EN" "http://www.w3.org/Graphics/SVG/1.1/DTD/svg11.dtd">
<svg version="1.1" id="Layer_1" xmlns="http://www.w3.org/2000/svg" xmlns:xlink="http://www.w3.org/1999/xlink" x="0px" y="0px"
	  viewBox="0 0 202.334 76.665" enable-background="new 0 0 202.334 76.665"
	 xml:space="preserve">
<g>
	<g>
		<g>
			<path fill="#FFFFFF" d="M6.199,49.152c0.154-11.469,8.504-23.077,19.974-22.922c0.06,0,0.118,0.005,0.177,0.006
				c3.08-7.79,10.725-13.255,19.597-13.136c1.752,0.024,3.45,0.266,5.072,0.697c4.25-3.86,9.915-6.187,16.109-6.103
				C79.938,7.866,90.21,18.261,90.299,31.014c0,0-52.838-0.802-65.978,8.455S6.199,49.152,6.199,49.152"/>
		</g>
		<g>
			<path fill="#FFFFFF" d="M83.539,68.654c0.875,0.152,1.765,0.258,2.678,0.284l0.809-0.004c0.158-0.003,0.315-0.012,0.472-0.018
				l-3.959-0.363V68.654z"/>
			<path fill="#FFFFFF" d="M83.539,68.951l2.678-0.014c-0.914-0.025-1.803-0.131-2.678-0.284V68.951z"/>
			<path fill="#FFFFFF" d="M105.514,50.401c0.12-8.966-6.059-16.538-14.432-18.534C90.991,19.114,80.72,8.719,67.91,8.546
				C61.714,8.463,56.05,10.79,51.801,14.65c-1.62-0.431-3.318-0.674-5.073-0.697c-8.873-0.119-16.517,5.346-19.597,13.136
				c-0.059,0-0.117-0.006-0.177-0.007C15.485,26.928,6.062,36.101,5.908,47.57c-0.15,11.233,8.646,20.497,19.783,21.019L23.62,68.58
				l9.749,0.131V48.517c0-5.477,3.177-9.932,7.082-9.932h36.006c3.905,0,7.082,4.455,7.082,9.932v20.035l3.959,0.363
				C97.403,68.504,105.379,60.436,105.514,50.401z"/>
			<path fill="#FFFFFF" d="M86.455,68.954c0.193,0.002,0.38-0.019,0.571-0.021l-0.809,0.004
				C86.297,68.939,86.375,68.953,86.455,68.954z"/>
			<path fill="#FFFFFF" d="M87.652,68.929l-0.154-0.014c-0.157,0.006-0.314,0.015-0.472,0.018L87.652,68.929z"/>
			<path fill="#FFFFFF" d="M33.816,48.517c0-5.229,2.977-9.484,6.634-9.484h36.006c3.658,0,6.634,4.255,6.634,9.484V68.91
				l0.448,0.041V48.517c0-5.477-3.177-9.932-7.082-9.932H40.451c-3.905,0-7.082,4.455-7.082,9.932V68.71l0.448,0.006V48.517z"/>
			<path fill="#FFFFFF" d="M37.265,54.34c0-4.487,2.549-8.137,5.683-8.137h31.012c3.134,0,5.684,3.65,5.684,8.137v14.632
				l0.448-0.002V54.34c0-4.734-2.75-8.585-6.131-8.585H42.948c-3.38,0-6.131,3.852-6.131,8.585v14.417l0.448,0.005V54.34z"/>
			<path fill="#FFFFFF" d="M65.646,41.173H51.262c-0.427,0-0.773,0.346-0.773,0.771c0,0.426,0.346,0.772,0.773,0.772h14.383
				c0.427,0,0.772-0.346,0.772-0.772C66.418,41.519,66.072,41.173,65.646,41.173z"/>
		</g>
	</g>
	<g>
		<g>
			<g>
				<path fill="#FFFFFF" d="M125.66,38.799h-3.973l-1.191-5.42c-0.057-0.228-0.146-0.678-0.269-1.353
					c-0.122-0.675-0.211-1.24-0.267-1.694c-0.046,0.369-0.121,0.827-0.223,1.374c-0.103,0.548-0.202,1.051-0.302,1.511
					c-0.1,0.46-0.512,2.321-1.238,5.583h-3.975l-3.079-12.441h3.241l1.354,6.237c0.307,1.379,0.517,2.477,0.629,3.293
					c0.074-0.579,0.207-1.364,0.396-2.357c0.19-0.993,0.366-1.815,0.531-2.468l1.099-4.706h3.113l1.064,4.706
					c0.182,0.755,0.365,1.625,0.554,2.613c0.186,0.987,0.312,1.725,0.374,2.212c0.074-0.63,0.275-1.722,0.604-3.276l1.379-6.254
					h3.241L125.66,38.799z"/>
				<path fill="#FFFFFF" d="M137.72,38.799h-7.387V26.358h7.387v2.697h-4.026v1.958h3.729v2.697h-3.729v2.349h4.026V38.799z"/>
				<path fill="#FFFFFF" d="M147.531,38.799l-0.612-2.332h-4.043l-0.63,2.332h-3.692l4.058-12.492h4.485l4.111,12.492H147.531z
					 M146.22,33.71l-0.535-2.042c-0.125-0.454-0.276-1.041-0.456-1.762c-0.178-0.721-0.296-1.236-0.352-1.549
					c-0.053,0.29-0.152,0.766-0.303,1.43s-0.484,1.972-1,3.923H146.22z"/>
				<path fill="#FFFFFF" d="M158.042,38.799h-3.362v-9.692h-3.037v-2.749h9.429v2.749h-3.029V38.799z"/>
				<path fill="#FFFFFF" d="M173.511,38.799h-3.379v-5.072h-3.905v5.072h-3.379V26.358h3.379v4.612h3.905v-4.612h3.379V38.799z"/>
				<path fill="#FFFFFF" d="M183.586,38.799H176.2V26.358h7.386v2.697h-4.025v1.958h3.729v2.697h-3.729v2.349h4.025V38.799z"/>
				<path fill="#FFFFFF" d="M189.125,34.271v4.527h-3.36V26.358h4.075c3.382,0,5.072,1.225,5.072,3.676
					c0,1.44-0.703,2.555-2.11,3.344l3.626,5.42h-3.813l-2.639-4.527H189.125z M189.125,31.744h0.631
					c1.174,0,1.761-0.519,1.761-1.557c0-0.857-0.575-1.285-1.727-1.285h-0.665V31.744z"/>
			</g>
			<g>
				<path fill="#FFFFFF" d="M130.013,45.857c0,1.386-0.347,2.483-1.04,3.29c-0.693,0.806-1.649,1.21-2.868,1.21
					c-1.216,0-2.169-0.404-2.862-1.21c-0.693-0.807-1.041-1.908-1.041-3.302c0-1.391,0.351-2.485,1.049-3.284
					c0.7-0.799,1.655-1.198,2.866-1.198c1.219,0,2.173,0.401,2.863,1.204C129.668,43.37,130.013,44.467,130.013,45.857z
					 M122.865,45.857c0,1.251,0.278,2.218,0.836,2.901c0.559,0.683,1.359,1.025,2.403,1.025c1.052,0,1.854-0.339,2.411-1.016
					c0.556-0.677,0.833-1.647,0.833-2.91c0-1.259-0.277-2.224-0.833-2.896c-0.557-0.671-1.356-1.007-2.399-1.007
					c-1.04,0-1.842,0.339-2.405,1.016C123.147,43.648,122.865,44.61,122.865,45.857z"/>
				<path fill="#FFFFFF" d="M138.373,50.238h-0.615l-5.177-7.757h-0.048c0.048,0.924,0.072,1.621,0.072,2.091v5.666h-0.585v-8.737
					h0.608l5.17,7.745h0.036c-0.036-0.717-0.054-1.398-0.054-2.043v-5.701h0.592V50.238z"/>
				<path fill="#FFFFFF" d="M146.304,50.238h-0.616v-8.164h-2.838v-0.573h6.293v0.573h-2.839V50.238z"/>
				<path fill="#FFFFFF" d="M156.769,50.238h-0.615v-4.297h-5.104v4.297h-0.609v-8.737h0.609v3.878h5.104v-3.878h0.615V50.238z"/>
				<path fill="#FFFFFF" d="M164.017,50.238h-4.774v-8.737h4.774v0.562h-4.166v3.305h3.934v0.562h-3.934v3.747h4.166V50.238z"/>
				<path fill="#FFFFFF" d="M172.61,45.833h3.221v3.986c-0.844,0.359-1.795,0.538-2.85,0.538c-1.379,0-2.436-0.389-3.171-1.168
					c-0.735-0.779-1.103-1.881-1.103-3.308c0-0.889,0.183-1.677,0.547-2.363c0.365-0.688,0.886-1.218,1.565-1.593
					c0.68-0.375,1.459-0.562,2.34-0.562c0.953,0,1.807,0.175,2.564,0.526l-0.245,0.55c-0.757-0.351-1.542-0.526-2.355-0.526
					c-1.15,0-2.064,0.355-2.739,1.067c-0.676,0.711-1.014,1.67-1.014,2.877c0,1.314,0.321,2.304,0.962,2.967
					c0.642,0.663,1.584,0.995,2.827,0.995c0.805,0,1.488-0.113,2.05-0.34v-3.072h-2.6V45.833z"/>
				<path fill="#FFFFFF" d="M185.37,45.857c0,1.386-0.347,2.483-1.04,3.29c-0.693,0.806-1.649,1.21-2.868,1.21
					c-1.216,0-2.169-0.404-2.862-1.21c-0.693-0.807-1.041-1.908-1.041-3.302c0-1.391,0.351-2.485,1.049-3.284
					c0.7-0.799,1.655-1.198,2.866-1.198c1.219,0,2.174,0.401,2.863,1.204C185.025,43.37,185.37,44.467,185.37,45.857z
					 M178.223,45.857c0,1.251,0.278,2.218,0.837,2.901c0.558,0.683,1.358,1.025,2.402,1.025c1.052,0,1.855-0.339,2.411-1.016
					c0.556-0.677,0.833-1.647,0.833-2.91c0-1.259-0.277-2.224-0.833-2.896s-1.355-1.007-2.399-1.007
					c-1.04,0-1.842,0.339-2.405,1.016C178.505,43.648,178.223,44.61,178.223,45.857z"/>
			</g>
		</g>
		<g>
			<g>
				<path fill="#FFFFFF" d="M125.66,38.799h-3.973l-1.191-5.42c-0.057-0.228-0.146-0.678-0.269-1.353
					c-0.122-0.675-0.211-1.24-0.267-1.694c-0.046,0.369-0.121,0.827-0.223,1.374c-0.103,0.548-0.202,1.051-0.302,1.511
					c-0.1,0.46-0.512,2.321-1.238,5.583h-3.975l-3.079-12.441h3.241l1.354,6.237c0.307,1.379,0.517,2.477,0.629,3.293
					c0.074-0.579,0.207-1.364,0.396-2.357c0.19-0.993,0.366-1.815,0.531-2.468l1.099-4.706h3.113l1.064,4.706
					c0.182,0.755,0.365,1.625,0.554,2.613c0.186,0.987,0.312,1.725,0.374,2.212c0.074-0.63,0.275-1.722,0.604-3.276l1.379-6.254
					h3.241L125.66,38.799z"/>
				<path fill="#FFFFFF" d="M137.72,38.799h-7.387V26.358h7.387v2.697h-4.026v1.958h3.729v2.697h-3.729v2.349h4.026V38.799z"/>
				<path fill="#FFFFFF" d="M147.531,38.799l-0.612-2.332h-4.043l-0.63,2.332h-3.692l4.058-12.492h4.485l4.111,12.492H147.531z
					 M146.22,33.71l-0.535-2.042c-0.125-0.454-0.276-1.041-0.456-1.762c-0.178-0.721-0.296-1.236-0.352-1.549
					c-0.053,0.29-0.152,0.766-0.303,1.43s-0.484,1.972-1,3.923H146.22z"/>
				<path fill="#FFFFFF" d="M158.042,38.799h-3.362v-9.692h-3.037v-2.749h9.429v2.749h-3.029V38.799z"/>
				<path fill="#FFFFFF" d="M173.511,38.799h-3.379v-5.072h-3.905v5.072h-3.379V26.358h3.379v4.612h3.905v-4.612h3.379V38.799z"/>
				<path fill="#FFFFFF" d="M183.586,38.799H176.2V26.358h7.386v2.697h-4.025v1.958h3.729v2.697h-3.729v2.349h4.025V38.799z"/>
				<path fill="#FFFFFF" d="M189.125,34.271v4.527h-3.36V26.358h4.075c3.382,0,5.072,1.225,5.072,3.676
					c0,1.44-0.703,2.555-2.11,3.344l3.626,5.42h-3.813l-2.639-4.527H189.125z M189.125,31.744h0.631
					c1.174,0,1.761-0.519,1.761-1.557c0-0.857-0.575-1.285-1.727-1.285h-0.665V31.744z"/>
			</g>
			<g>
				<path fill="#FFFFFF" d="M130.013,45.857c0,1.386-0.347,2.483-1.04,3.29c-0.693,0.806-1.649,1.21-2.868,1.21
					c-1.216,0-2.169-0.404-2.862-1.21c-0.693-0.807-1.041-1.908-1.041-3.302c0-1.391,0.351-2.485,1.049-3.284
					c0.7-0.799,1.655-1.198,2.866-1.198c1.219,0,2.173,0.401,2.863,1.204C129.668,43.37,130.013,44.467,130.013,45.857z
					 M122.865,45.857c0,1.251,0.278,2.218,0.836,2.901c0.559,0.683,1.359,1.025,2.403,1.025c1.052,0,1.854-0.339,2.411-1.016
					c0.556-0.677,0.833-1.647,0.833-2.91c0-1.259-0.277-2.224-0.833-2.896c-0.557-0.671-1.356-1.007-2.399-1.007
					c-1.04,0-1.842,0.339-2.405,1.016C123.147,43.648,122.865,44.61,122.865,45.857z"/>
				<path fill="#FFFFFF" d="M138.373,50.238h-0.615l-5.177-7.757h-0.048c0.048,0.924,0.072,1.621,0.072,2.091v5.666h-0.585v-8.737
					h0.608l5.17,7.745h0.036c-0.036-0.717-0.054-1.398-0.054-2.043v-5.701h0.592V50.238z"/>
				<path fill="#FFFFFF" d="M146.304,50.238h-0.616v-8.164h-2.838v-0.573h6.293v0.573h-2.839V50.238z"/>
				<path fill="#FFFFFF" d="M156.769,50.238h-0.615v-4.297h-5.104v4.297h-0.609v-8.737h0.609v3.878h5.104v-3.878h0.615V50.238z"/>
				<path fill="#FFFFFF" d="M164.017,50.238h-4.774v-8.737h4.774v0.562h-4.166v3.305h3.934v0.562h-3.934v3.747h4.166V50.238z"/>
				<path fill="#FFFFFF" d="M172.61,45.833h3.221v3.986c-0.844,0.359-1.795,0.538-2.85,0.538c-1.379,0-2.436-0.389-3.171-1.168
					c-0.735-0.779-1.103-1.881-1.103-3.308c0-0.889,0.183-1.677,0.547-2.363c0.365-0.688,0.886-1.218,1.565-1.593
					c0.68-0.375,1.459-0.562,2.34-0.562c0.953,0,1.807,0.175,2.564,0.526l-0.245,0.55c-0.757-0.351-1.542-0.526-2.355-0.526
					c-1.15,0-2.064,0.355-2.739,1.067c-0.676,0.711-1.014,1.67-1.014,2.877c0,1.314,0.321,2.304,0.962,2.967
					c0.642,0.663,1.584,0.995,2.827,0.995c0.805,0,1.488-0.113,2.05-0.34v-3.072h-2.6V45.833z"/>
				<path fill="#FFFFFF" d="M185.37,45.857c0,1.386-0.347,2.483-1.04,3.29c-0.693,0.806-1.649,1.21-2.868,1.21
					c-1.216,0-2.169-0.404-2.862-1.21c-0.693-0.807-1.041-1.908-1.041-3.302c0-1.391,0.351-2.485,1.049-3.284
					c0.7-0.799,1.655-1.198,2.866-1.198c1.219,0,2.174,0.401,2.863,1.204C185.025,43.37,185.37,44.467,185.37,45.857z
					 M178.223,45.857c0,1.251,0.278,2.218,0.837,2.901c0.558,0.683,1.358,1.025,2.402,1.025c1.052,0,1.855-0.339,2.411-1.016
					c0.556-0.677,0.833-1.647,0.833-2.91c0-1.259-0.277-2.224-0.833-2.896s-1.355-1.007-2.399-1.007
					c-1.04,0-1.842,0.339-2.405,1.016C178.505,43.648,178.223,44.61,178.223,45.857z"/>
			</g>
		</g>
	</g>
</g>
</svg>
