<?xml version="1.0" encoding="utf-8"?>
<!-- Generator: Adobe Illustrator 16.0.0, SVG Export Plug-In . SVG Version: 6.00 Build 0)  -->
<!DOCTYPE svg PUBLIC "-//W3C//DTD SVG 1.1//EN" "http://www.w3.org/Graphics/SVG/1.1/DTD/svg11.dtd">
<svg version="1.1" id="Layer_1" xmlns="http://www.w3.org/2000/svg" xmlns:xlink="http://www.w3.org/1999/xlink" x="0px" y="0px"
	 viewBox="0 0 300 300" enable-background="new 0 0 300 300" xml:space="preserve">
<g>
	<path fill-rule="evenodd" clip-rule="evenodd" fill="#F6EC13" d="M-388.027,14.119c-7.48,14.322-13.188,25.253-19.304,36.967
		c11.02-0.991,20.901-1.88,30.784-2.77c0.405,0.801,0.809,1.602,1.214,2.401c-29.761,28.048-59.521,56.096-89.281,84.144
		c-0.902-0.656-1.805-1.312-2.707-1.966c10.18-18.7,20.358-37.398,31.234-57.376c-7.435,1.424-13.369,2.56-21.137,4.047
		c2.602-10.536,4.837-19.841,7.208-29.112c2.349-9.186,5.039-18.288,7.19-27.518c1.443-6.188,3.859-9.421,11.219-9.027
		C-417.902,14.641-404.133,14.119-388.027,14.119z M-450.746,73.057c7.935-1.394,14.324-2.516,23.34-4.1
		c-8.633,16.322-15.885,30.031-23.136,43.739c0.532,0.303,1.064,0.607,1.595,0.91c20.689-19.491,41.379-38.984,63.001-59.356
		c-10.302,0.586-18.803,1.068-29.435,1.672c6.903-13.288,12.522-24.102,19.048-36.658c-12.883,0-23.731-0.297-34.538,0.224
		c-2.482,0.12-6.368,2.601-6.992,4.753C-442.41,39.934-446.291,55.823-450.746,73.057z"/>
</g>
<path fill-rule="evenodd" clip-rule="evenodd" fill="#23231B" d="M-280.612-54.053c0-31.371-25.431-56.804-56.806-56.804
	c-2.063,0-4.099,0.117-6.104,0.331c-9.594-19.298-29.5-32.568-52.516-32.568c-20.645,0-38.786,10.684-49.229,26.815
	c-7.97-7.785-18.864-12.59-30.885-12.59c-24.417,0-44.213,19.795-44.213,44.213c0,0.042,0.003,0.081,0.003,0.122
	c-20.351,3.964-35.714,21.878-35.714,43.388c0,24.417,19.795,44.213,44.212,44.213c2.753,0,5.443-0.265,8.057-0.747l172.453,0.747
	c0.973,0,1.36-0.311,1.434-0.824C-302.092-1.427-280.612-25.224-280.612-54.053z"/>
<path opacity="0.4" d="M-303.128-45.414c0-22.908-18.567-41.479-41.477-41.479c-15.238,0-28.521,8.24-35.73,20.484
	c-5.339-3.862-11.878-6.164-18.969-6.164c-2.006,0-3.96,0.208-5.863,0.557c-7.609-9.088-19.028-14.876-31.808-14.876
	c-15.238,0-28.521,8.24-35.73,20.484c-5.339-3.862-11.878-6.164-18.969-6.164c-17.914,0-32.434,14.521-32.434,32.433
	c0,5.89,1.594,11.396,4.338,16.156c-0.564-2.395-0.893-4.88-0.893-7.447c0-17.912,14.52-32.432,32.434-32.432
	c4.583,0,8.942,0.963,12.896,2.68c0.914,0.397,1.809,0.829,2.677,1.305c5.223,2.865,9.548,7.136,12.518,12.29
	c-1.481-6.292-4.784-11.866-9.335-16.15c7.573-8.149,18.351-13.278,30.356-13.278c9.26,0,17.78,3.072,24.683,8.2
	c-10.288,5.438-17.304,16.232-17.304,28.677c0,5.89,1.594,11.396,4.338,16.156c-0.564-2.395-0.893-4.88-0.893-7.447
	c0-13.973,8.853-25.847,21.243-30.409c2.324-0.855,4.765-1.465,7.305-1.769c1.277-0.152,2.569-0.255,3.887-0.255
	c4.583,0,8.942,0.963,12.896,2.68c0.914,0.397,1.81,0.829,2.677,1.305c5.224,2.865,9.548,7.136,12.519,12.29
	c-1.481-6.292-4.783-11.866-9.336-16.15c7.573-8.149,18.352-13.278,30.357-13.278c22.909,0,41.477,18.57,41.477,41.479
	c0,1.258-0.078,2.498-0.189,3.728C-303.973-36.077-303.128-40.642-303.128-45.414z"/>
<g>
	<g>
		<path fill="#F6EC13" d="M-206.972-149.654l-0.51-0.504l-16.799-16.56l-19.312,19.589l-0.354,0.359l-32.031,32.492l33.987-0.243
			c10.979,56.148,60.545,98.652,119.859,98.652C-54.788-15.868,0-70.655,0-137.999c0-67.345-54.788-122.133-122.133-122.133
			c-63.047,0-115.076,48.024-121.46,109.411l19.312-19.59l16.799,16.561l0.51,0.503c7.223-40.287,42.506-70.964,84.839-70.964
			c47.537,0,86.211,38.674,86.211,86.212c0,47.535-38.674,86.211-86.211,86.211c-39.496,0-72.87-26.699-83.032-62.995l33.325-0.238
			L-206.972-149.654"/>
		
			<radialGradient id="SVGID_1_" cx="-199.3262" cy="-192.5547" r="60.2252" fx="-225.6493" fy="-138.3867" gradientTransform="matrix(0.9467 0.3221 -0.485 1.4256 -104.0156 146.1605)" gradientUnits="userSpaceOnUse">
			<stop  offset="0" style="stop-color:#BCB713"/>
			<stop  offset="1" style="stop-color:#F5EB0F"/>
		</radialGradient>
		<path fill="url(#SVGID_1_)" d="M-122.133-259.833c-63.047,0-115.076,48.024-121.46,109.411l19.312-19.589l16.799,16.56l0.51,0.504
			c7.223-40.287,42.506-70.964,84.839-70.964"/>
	</g>
</g>
<g>
	<path fill-rule="evenodd" clip-rule="evenodd" fill="#1A9AD7" d="M128.21,79.011c-2.461,3.8-4.917,7.605-7.386,11.401
		c-3.145,4.833-8.59,4.862-11.876,0.072c-2.317-3.377-4.626-6.761-6.959-10.126c-0.338-0.487-0.533-1.121-1.19-1.407
		c-0.39,0.602-0.197,1.236-0.198,1.827c-0.018,6.241-0.002,12.482-0.015,18.724c-0.005,3.183-1.152,4.303-4.348,4.313
		c-1.702,0.004-3.405,0.029-5.106-0.008c-2.22-0.051-3.521-1.3-3.596-3.517c-0.064-1.882-0.013-3.769-0.013-6.156
		c-0.646,1.125-1.025,1.869-1.479,2.564c-3.026,4.64-7.661,6.588-12.845,7.443c-7.539,1.242-14.946,0.133-22.287-1.583
		c-1.663-0.389-2.559-1.483-2.536-3.278c0.032-2.647,0.081-5.299-0.023-7.943c-0.055-1.379,0.469-1.385,1.542-1.104
		c5.802,1.524,11.663,2.69,17.7,2.66c1.26-0.006,2.523-0.003,3.747-0.389c0.966-0.307,2.181-0.547,2.254-1.708
		c0.081-1.295-1.181-1.746-2.188-1.998c-2.072-0.517-4.19-0.854-6.292-1.254c-3.725-0.713-7.383-1.625-10.736-3.477
		c-3.91-2.159-6.489-5.285-6.472-9.917c0.017-4.639,2.436-7.979,6.383-10.226c4.257-2.422,8.956-2.906,13.723-2.762
		c4.226,0.129,8.401,0.779,12.514,1.779c2.212,0.537,2.791,1.276,2.805,3.569c0.015,2.58,0.004,5.159,0.004,7.931
		c-2.978-0.622-5.82-1.268-8.684-1.802c-2.794-0.524-5.629-0.811-8.465-0.538c-1.376,0.134-3.399,0.086-3.507,1.831
		c-0.101,1.618,1.857,1.864,3.156,2.127c3.332,0.674,6.722,1.071,9.985,2.056c3.779,1.142,7.387,2.62,9.923,5.861
		c0.574,0.735,1.005,1.582,1.642,2.6c0.053-0.648,0.128-1.148,0.128-1.647c0.008-6.178,0.001-12.356,0.007-18.534
		c0.003-3.134,1.093-4.244,4.17-4.252c3.53-0.008,7.062,0.022,10.592-0.011c1.874-0.017,3.19,0.726,4.205,2.344
		c2.707,4.319,5.522,8.571,8.44,13.074c1.887-2.982,3.663-5.789,5.437-8.597c0.977-1.544,1.992-3.065,2.911-4.644
		c0.847-1.455,2.073-2.153,3.72-2.157c3.72-0.009,7.44-0.048,11.159,0.007c2.246,0.033,3.392,1.379,3.396,3.859
		c0.013,8.321,0.005,16.642,0.005,25.099c0.818-0.272,1.004-0.991,1.339-1.518c5.179-8.129,10.337-16.271,15.499-24.412
		c3.025-4.768,8.585-4.896,11.767-0.244c5.511,8.063,11,16.142,16.502,24.211c0.484,0.712,0.992,1.411,1.576,2.239
		c0.481-0.722,0.292-1.355,0.293-1.938c0.015-7.69,0.005-15.382,0.012-23.073c0.004-3.134,1.096-4.292,4.185-4.231
		c6.106,0.121,12.227-0.388,18.323,0.347c4.122,0.498,7.918,1.887,11.354,4.373c0.62-4.246,1.191-4.729,5.387-4.729
		c11.789,0,23.578,0.023,35.367-0.03c1.368-0.006,1.919,0.273,1.799,1.747c-0.138,1.69-0.029,3.402-0.032,5.104
		c-0.005,2.872-1.198,4.102-4.117,4.14c-2.899,0.038-5.802,0.07-8.698-0.02c-1.257-0.039-1.59,0.358-1.582,1.591
		c0.049,8.259,0.028,16.517,0.024,24.776c-0.004,3.351-1.034,4.361-4.424,4.366c-2.459,0.003-4.922-0.083-7.374,0.032
		c-1.408,0.066-1.815-0.331-1.804-1.773c0.066-9.015-0.008-18.03,0.073-27.045c0.014-1.602-0.436-2.03-1.995-1.955
		c-2.69,0.13-5.394,0.036-8.188,0.036c1.592,6.424-0.59,11.057-6.098,14.172c-1.226,0.692-0.379,1.196,0.014,1.727
		c3.218,4.36,6.46,8.703,9.679,13.063c0.357,0.483,0.898,0.879,0.945,1.676c-4.049,0-8.063,0.123-12.065-0.05
		c-2.012-0.088-3.676-1.251-4.854-2.948c-2.557-3.672-5.124-7.337-7.632-11.041c-1.452-2.144-0.753-4.066,1.689-4.85
		c1.263-0.406,2.524-0.801,3.631-1.56c2.907-1.995,3.379-5.536,1.096-8.21c-1.92-2.248-8.331-3.982-11.094-3.045
		c-0.817,0.277-0.547,0.903-0.552,1.402c-0.04,3.972-0.044,7.942-0.062,11.915c-0.019,4.79-0.03,9.583-0.064,14.372
		c-0.021,3.016-1.097,4.074-4.119,4.081c-4.162,0.008-8.322-0.032-12.484,0.014c-2.685,0.029-4.88-0.816-6.026-3.368
		c-1.046-2.325-2.681-2.987-5.192-2.878c-4.971,0.217-9.96,0.032-14.938,0.083c-1.403,0.015-1.516-0.362-0.784-1.451
		c1.016-1.517,1.996-3.063,2.895-4.653c1.445-2.558,3.551-3.823,6.516-3.645c1.002,0.062,2.012,0.011,3.419,0.011
		c-2.176-3.43-4.206-6.63-6.227-9.813c-0.753,0.169-0.874,0.794-1.16,1.247c-4.523,7.128-9.073,14.239-13.519,21.417
		c-1.311,2.116-3.105,3.024-5.477,3.033c-3.973,0.012-7.943,0.019-11.915-0.001c-2.628-0.013-3.821-1.191-3.829-3.803
		c-0.018-6.367-0.006-12.734-0.006-19.103c0-0.604,0-1.211,0-1.816C128.488,79.062,128.35,79.036,128.21,79.011z"/>
	<path fill-rule="evenodd" clip-rule="evenodd" fill="#179BD7" d="M152.576,122.344c-0.11,3.84-0.237,7.679-0.319,11.519
		c-0.021,1.005,0.05,1.807-1.425,1.791c-1.619-0.017-1.278-1.039-1.24-1.916c0.211-4.97,0.449-9.939,0.692-14.907
		c0.041-0.846-0.155-1.948,1.208-1.892c1.206,0.052,2.676-0.61,3.26,1.306c0.973,3.188,2.089,6.332,3.157,9.489
		c0.239,0.713,0.527,1.41,0.787,2.1c0.724,0.046,0.638-0.553,0.76-0.9c1.2-3.378,2.555-6.718,3.48-10.171
		c0.585-2.178,1.977-1.927,3.457-1.821c1.723,0.125,1.151,1.559,1.2,2.487c0.265,4.904,0.43,9.813,0.662,14.72
		c0.04,0.832,0.114,1.506-1.055,1.502c-0.977-0.003-1.721-0.04-1.725-1.343c-0.015-3.906-0.101-7.811-0.165-11.715
		c-0.009-0.598-0.049-1.194-0.438-1.854c-0.568,1.616-1.131,3.234-1.7,4.849c-0.67,1.897-1.383,3.783-2,5.697
		c-0.375,1.163-0.967,1.73-2.294,1.727c-1.363-0.004-1.851-0.682-2.233-1.808c-1.093-3.216-2.26-6.407-3.396-9.607
		C152.403,121.287,152.864,122.152,152.576,122.344z"/>
	<path fill-rule="evenodd" clip-rule="evenodd" fill="#1B9CD7" d="M203.282,135.388c-2.038,0.652-3.173,0.025-3.944-1.72
		c-0.686-1.545-1.736-2.926-2.45-4.46c-0.526-1.132-1.297-1.31-2.396-1.28c-0.896,0.023-1.219,0.287-1.19,1.194
		c0.056,1.76-0.025,3.524,0.031,5.285c0.034,1.088-0.547,1.22-1.421,1.217c-0.861-0.001-1.449-0.113-1.444-1.2
		c0.028-5.412,0.02-10.825,0.007-16.238c-0.002-0.843,0.362-1.3,1.197-1.37c2.196-0.183,4.396-0.367,6.583,0.06
		c1.945,0.38,3.463,1.377,3.771,3.445c0.359,2.393,0.588,5.011-1.787,6.501c-1.463,0.919-1.118,1.523-0.461,2.584
		C200.961,131.32,202.061,133.291,203.282,135.388z"/>
	<path fill-rule="evenodd" clip-rule="evenodd" fill="#179BD7" d="M186.325,126.112c-0.114,1.999,0.021,3.767-0.457,5.497
		c-0.572,2.072-1.868,3.383-3.928,3.927c-1.604,0.425-3.212,0.468-4.86,0.145c-2.583-0.508-4.21-1.987-4.639-4.564
		c-0.539-3.243-0.532-6.519,0.012-9.767c0.438-2.609,2.112-4.071,4.653-4.558c1.368-0.263,2.767-0.265,4.136-0.012
		c2.932,0.542,4.52,2.284,4.892,5.428C186.297,123.579,186.274,124.971,186.325,126.112z"/>
	<path fill-rule="evenodd" clip-rule="evenodd" fill="#DF1B51" d="M141.859,30.397c3.446,0.028,6.173,2.814,6.154,6.29
		c-0.02,3.447-2.818,6.206-6.27,6.177c-3.412-0.029-6.229-2.89-6.193-6.294C135.587,33.155,138.433,30.369,141.859,30.397z"/>
	<path fill-rule="evenodd" clip-rule="evenodd" fill="#CDDC29" d="M185.589,30.398c3.438-0.025,6.264,2.75,6.289,6.177
		c0.026,3.432-2.751,6.256-6.184,6.289c-3.418,0.03-6.271-2.769-6.3-6.182C179.367,33.258,182.16,30.424,185.589,30.398z"/>
	<path fill-rule="evenodd" clip-rule="evenodd" fill="#CDDC29" d="M77.176,36.557c0.025-3.47,2.799-6.201,6.254-6.156
		c3.417,0.044,6.236,2.914,6.188,6.3c-0.048,3.394-2.928,6.197-6.333,6.164C79.84,42.83,77.151,40.054,77.176,36.557z"/>
	<path fill-rule="evenodd" clip-rule="evenodd" fill="#DF1B51" d="M177.226,21.958c0.036,3.511-2.627,6.238-6.125,6.27
		c-3.47,0.031-6.26-2.667-6.329-6.12c-0.066-3.372,2.759-6.263,6.177-6.319C174.372,15.731,177.188,18.5,177.226,21.958z"/>
	<path fill-rule="evenodd" clip-rule="evenodd" fill="#179BD7" d="M112.497,57.418c-3.494-0.044-6.198-2.832-6.138-6.328
		c0.057-3.465,2.868-6.115,6.404-6.038c3.403,0.074,6.08,2.817,6.059,6.209C118.799,54.723,115.985,57.462,112.497,57.418z"/>
	<path fill-rule="evenodd" clip-rule="evenodd" fill="#72C5E8" d="M200.193,30.422c3.349-0.014,6.343,2.948,6.319,6.251
		c-0.022,3.237-2.918,6.126-6.207,6.194c-3.377,0.071-6.235-2.818-6.215-6.28C194.111,33.191,196.837,30.438,200.193,30.422z"/>
	<path fill-rule="evenodd" clip-rule="evenodd" fill="#72C5E8" d="M133.302,22.183c-0.044,3.401-2.756,6.028-6.187,5.998
		c-3.47-0.031-6.125-2.812-6.054-6.34c0.067-3.358,2.928-6.163,6.204-6.083C130.688,15.839,133.349,18.671,133.302,22.183z"/>
	<path fill-rule="evenodd" clip-rule="evenodd" fill="#BAD9EA" d="M170.928,57.274c-3.664-0.019-5.97-2.447-5.935-6.249
		c0.03-3.391,2.683-5.898,6.211-5.87c3.374,0.027,5.944,2.721,5.918,6.2C177.096,54.735,174.421,57.292,170.928,57.274z"/>
	<path fill-rule="evenodd" clip-rule="evenodd" fill="#1B9CD7" d="M206.325,125.906c-0.007-2.201-0.192-4.411,0.237-6.599
		c0.283-1.442,1.121-2.26,2.572-2.296c2.393-0.059,4.788-0.017,7.183-0.047c0.739-0.009,1.006,0.304,0.984,1.02
		c-0.021,0.684-0.057,1.27-0.971,1.264c-1.829-0.014-3.658,0.052-5.484-0.019c-1.209-0.047-1.646,0.458-1.797,1.617
		c-0.531,4.059-0.565,4.054,3.532,4.054c0.695,0,1.388-0.001,2.081,0c0.753,0.004,1.524-0.14,1.521,1.076
		c-0.003,1.111-0.599,1.206-1.45,1.189c-1.448-0.027-2.9-0.019-4.35,0c-0.423,0.005-1.104-0.185-1.217,0.234
		c-0.47,1.729-0.292,3.504,0.122,5.208c0.291,1.197,1.457,0.711,2.267,0.744c1.512,0.063,3.027,0.053,4.539,0.007
		c0.911-0.028,1.208,0.35,1.212,1.229c0.001,0.86-0.382,1.068-1.15,1.058c-2.207-0.032-4.413-0.01-6.619-0.023
		c-1.81-0.011-2.806-0.917-2.968-2.733c-0.065-0.752-0.216-1.502-0.233-2.254C206.299,129.057,206.325,127.482,206.325,125.906z"/>
	<path fill-rule="evenodd" clip-rule="evenodd" fill="#1B9CD7" d="M127.95,126.038c0-1.886-0.081-3.777,0.021-5.66
		c0.135-2.558,0.986-3.355,3.509-3.412c2.012-0.046,4.026-0.003,6.039,0.003c0.69,0.002,1.391-0.109,1.399,0.99
		c0.008,1.006-0.397,1.323-1.347,1.298c-1.698-0.042-3.399,0.04-5.096-0.028c-1.258-0.049-1.8,0.399-1.889,1.707
		c-0.269,3.967-0.311,3.963,3.647,3.963c0.817,0,1.636,0.026,2.453-0.003c0.813-0.029,1.096,0.325,1.088,1.128
		c-0.009,0.809-0.331,1.141-1.119,1.135c-1.636-0.014-3.272,0.032-4.907-0.016c-0.863-0.024-1.332,0.219-1.206,1.157
		c0.008,0.062,0.003,0.125,0,0.188c-0.181,4.881-0.181,4.881,4.634,4.881c0.881,0,1.762,0.02,2.643-0.001
		c0.814-0.019,1.082,0.374,1.09,1.157c0.009,0.807-0.288,1.13-1.099,1.117c-2.328-0.035-4.656,0-6.982-0.046
		c-1.545-0.032-2.404-0.877-2.663-2.405C127.763,130.817,127.938,128.424,127.95,126.038z"/>
	<path fill-rule="evenodd" clip-rule="evenodd" fill="#1B9CD7" d="M117.476,133.043c1.695-4.997,2.924-9.586,4.091-14.199
		c0.158-0.628,0.039-1.492,0.808-1.793c0.64-0.25,1.423-0.336,2.005,0.06c0.58,0.392,0.17,1.059,0.021,1.555
		c-1.533,5.117-3.139,10.213-4.633,15.343c-0.369,1.264-1.003,1.666-2.282,1.665c-1.249,0-1.948-0.341-2.358-1.593
		c-1.642-5.021-3.226-10.058-4.505-15.181c-0.139-0.559-1.173-1.636,0.305-1.93c1.035-0.208,1.988-0.231,2.361,1.342
		c0.97,4.093,2.183,8.132,3.315,12.187C116.8,131.207,117.076,131.89,117.476,133.043z"/>
	<path fill-rule="evenodd" clip-rule="evenodd" fill="#1B9DD9" d="M91.307,125.544c0-2.391,0.033-4.782-0.016-7.171
		c-0.021-1.005,0.23-1.483,1.354-1.498c1.184-0.017,1.515,0.451,1.505,1.562c-0.04,4.402,0.024,8.807-0.04,13.207
		c-0.019,1.292,0.35,1.847,1.702,1.739c1.187-0.096,2.389,0.001,3.583-0.027c0.753-0.018,1.181,0.213,1.205,1.051
		c0.023,0.882-0.324,1.256-1.217,1.237c-1.823-0.04-3.648,0.007-5.47-0.046c-1.881-0.056-2.567-0.759-2.6-2.698
		c-0.043-2.452-0.011-4.905-0.011-7.356C91.301,125.544,91.304,125.544,91.307,125.544z"/>
	<path fill-rule="evenodd" clip-rule="evenodd" fill="#20A0DB" d="M106.841,126.506c0,2.574-0.036,5.15,0.017,7.725
		c0.022,1.029-0.271,1.452-1.373,1.44c-1.064-0.012-1.418-0.365-1.409-1.429c0.049-5.337,0.055-10.675,0.03-16.012
		c-0.005-0.97,0.314-1.34,1.295-1.337c0.962,0.001,1.54,0.164,1.517,1.326c-0.056,2.761-0.018,5.524-0.018,8.287
		C106.88,126.506,106.86,126.506,106.841,126.506z"/>
	<path fill-rule="evenodd" clip-rule="evenodd" fill="#C1E6F5" d="M152.576,122.344c-0.021-0.297-0.086-0.601-0.051-0.891
		c0.034-0.293-0.211-0.848,0.347-0.777c0.313,0.039,0.436,0.531,0.378,0.92C153.025,121.846,152.801,122.095,152.576,122.344z"/>
	<path fill-rule="evenodd" clip-rule="evenodd" fill="#FDFEFF" d="M193.318,122.293c0-3.379,0-3.379,2.06-3.387
		c3.153-0.009,4.049,0.722,4.049,3.304c-0.002,2.661-0.979,3.524-4.134,3.484C192.867,125.663,193.374,126.043,193.318,122.293z"/>
	<path fill-rule="evenodd" clip-rule="evenodd" fill="#FFFFFF" d="M183.429,126.242c0.062,1.444,0.08,2.888-0.225,4.313
		c-0.445,2.088-1.771,3.084-4.091,3.05c-2.218-0.032-3.569-1.021-3.904-3.039c-0.475-2.867-0.468-5.758,0.002-8.625
		c0.334-2.036,1.662-3.006,3.895-3.032c2.362-0.029,3.646,0.915,4.097,3.021c0.093,0.43,0.202,0.863,0.218,1.299
		C183.451,124.233,183.429,125.238,183.429,126.242z"/>
	<path fill-rule="evenodd" clip-rule="evenodd" fill="#1A9AD7" d="M106.369,126.263c0,2.518,0.006,5.034-0.003,7.552
		c-0.002,0.617,0.11,1.372-0.858,1.336c-0.801-0.031-1.022-0.609-1.022-1.314c0-5.098,0.002-10.196-0.004-15.293
		c0-0.651,0.168-1.105,0.933-1.109c0.914-0.006,0.958,0.602,0.957,1.277C106.365,121.227,106.368,123.745,106.369,126.263z"/>
</g>
<g>
	<path fill-rule="evenodd" clip-rule="evenodd" fill="#3C3C3B" d="M111.106,278.395c0.617-1.693,1.17-3.203,1.719-4.715
		c0.969-2.674,1.947-5.342,2.891-8.023c0.152-0.432,0.352-0.555,0.794-0.545c1.402,0.031,2.807,0.025,4.209,0.004
		c0.376-0.006,0.479,0.109,0.479,0.479c-0.011,5.898-0.011,11.797,0.001,17.695c0.001,0.41-0.125,0.529-0.525,0.512
		c-0.7-0.031-1.405-0.047-2.104,0.004c-0.563,0.037-0.738-0.104-0.734-0.709c0.03-4.408,0.017-8.814,0.017-13.223
		c0-0.24,0-0.48,0-0.768c-0.248,0.09-0.248,0.295-0.308,0.455c-1.704,4.496-3.417,8.99-5.099,13.496
		c-0.203,0.547-0.429,0.777-1.057,0.756c-1.597-0.061-1.593-0.021-2.153-1.525c-1.559-4.18-3.121-8.357-4.685-12.535
		c-0.064-0.174-0.078-0.377-0.266-0.506c-0.135,0.236-0.069,0.477-0.069,0.707c-0.005,4.385-0.014,8.77,0.009,13.154
		c0.003,0.535-0.117,0.74-0.678,0.695c-0.633-0.049-1.274-0.049-1.906,0c-0.536,0.043-0.648-0.15-0.647-0.658
		c0.018-5.371,0.012-10.744,0.012-16.115c0-0.461,0.031-0.924-0.009-1.381c-0.041-0.455,0.145-0.541,0.558-0.533
		c1.359,0.023,2.719,0.025,4.078-0.002c0.436-0.01,0.633,0.104,0.79,0.539c1.456,4.029,2.943,8.049,4.423,12.07
		C110.906,277.885,110.972,278.047,111.106,278.395z"/>
	<path fill-rule="evenodd" clip-rule="evenodd" fill="#3C3C3B" d="M186.066,284.23c-4.694,0-8.303-2.49-9.565-6.73
		c-1.172-3.936-0.171-8.602,3.45-11.092c4.049-2.787,10.322-2.258,13.676,1.238c2.097,2.186,2.764,4.904,2.437,7.832
		C195.461,280.873,191.565,284.23,186.066,284.23z M192.465,274.389c0.008-0.506-0.034-1.006-0.134-1.504
		c-1.102-5.48-6.922-6.506-10.066-4.02c-2.279,1.803-2.858,4.27-2.428,7.021c0.595,3.807,4.144,6.117,7.876,5.174
		C190.641,280.32,192.476,277.746,192.465,274.389z"/>
	<path fill-rule="evenodd" clip-rule="evenodd" fill="#3C3C3B" d="M207.406,275.566c1.638,2.723,3.26,5.418,4.946,8.223
		c-1.347,0-2.601,0-3.854-0.002c-0.321,0-0.354-0.293-0.459-0.488c-1.266-2.299-2.528-4.6-3.769-6.912
		c-0.204-0.379-0.433-0.549-0.865-0.498c-0.581,0.068-1.359-0.246-1.697,0.135c-0.288,0.324-0.097,1.082-0.1,1.648
		c-0.005,1.797-0.032,3.598,0.015,5.393c0.017,0.631-0.193,0.777-0.772,0.738c-0.72-0.047-1.446-0.029-2.169-0.004
		c-0.352,0.014-0.442-0.107-0.442-0.447c0.01-5.941,0.008-11.883,0.005-17.824c0-0.236-0.006-0.422,0.33-0.408
		c2.864,0.105,5.75-0.271,8.592,0.279c2.171,0.422,3.843,1.543,4.339,3.844c0.645,2.992-0.749,5.254-3.692,6.168
		C207.689,275.447,207.571,275.504,207.406,275.566z M201.602,270.518c0,0.744-0.001,1.49,0,2.234c0,0.197-0.03,0.414,0.28,0.398
		c1.481-0.066,2.983,0.189,4.442-0.242c1.337-0.396,1.982-1.248,1.941-2.527c-0.036-1.139-0.794-1.957-2.111-2.238
		c-1.385-0.297-2.792-0.156-4.19-0.195c-0.366-0.01-0.367,0.209-0.365,0.467C201.604,269.117,201.602,269.816,201.602,270.518z"/>
	<path fill-rule="evenodd" clip-rule="evenodd" fill="#3C3C3B" d="M174.184,274.447c0,2.896-0.016,5.791,0.014,8.684
		c0.006,0.561-0.159,0.711-0.697,0.672c-0.676-0.049-1.36-0.041-2.037,0c-0.484,0.029-0.634-0.104-0.628-0.609
		c0.029-2.346-0.003-4.693,0.026-7.037c0.007-0.523-0.137-0.652-0.65-0.646c-2.478,0.027-4.955,0.031-7.433-0.004
		c-0.549-0.008-0.63,0.182-0.625,0.664c0.022,2.346-0.001,4.693,0.02,7.039c0.005,0.449-0.101,0.619-0.577,0.594
		c-0.722-0.041-1.448-0.045-2.17,0c-0.521,0.033-0.656-0.129-0.654-0.65c0.021-4.803,0.012-9.604,0.012-14.406
		c0-1.053,0.017-2.105-0.008-3.156c-0.009-0.381,0.118-0.486,0.484-0.475c0.789,0.025,1.58,0.033,2.367-0.002
		c0.437-0.02,0.551,0.119,0.546,0.547c-0.021,2.129,0.006,4.256-0.021,6.381c-0.006,0.486,0.108,0.625,0.609,0.619
		c2.499-0.029,4.999-0.029,7.498,0c0.521,0.006,0.605-0.17,0.6-0.637c-0.023-2.082,0.014-4.164-0.025-6.248
		c-0.011-0.568,0.162-0.699,0.692-0.664c0.721,0.047,1.447,0.039,2.169,0.002c0.428-0.023,0.5,0.135,0.498,0.521
		C174.178,268.572,174.184,271.51,174.184,274.447z"/>
	<path fill-rule="evenodd" clip-rule="evenodd" fill="#3C3C3B" d="M86.002,274.402c0-2.875,0.009-5.746-0.01-8.621
		c-0.003-0.475,0.059-0.678,0.623-0.674c3.729,0.029,7.457,0.023,11.186,0.006c0.451-0.002,0.621,0.094,0.584,0.568
		c-0.044,0.568-0.055,1.146,0.002,1.711c0.061,0.584-0.18,0.666-0.697,0.662c-2.566-0.027-5.134,0.002-7.699-0.025
		c-0.49-0.004-0.638,0.117-0.622,0.617c0.039,1.182,0.033,2.369,0.003,3.553c-0.012,0.443,0.132,0.547,0.556,0.545
		c2.456-0.02,4.913,0.006,7.37-0.021c0.518-0.006,0.696,0.129,0.649,0.65c-0.047,0.523-0.05,1.057,0.001,1.578
		c0.051,0.525-0.165,0.607-0.633,0.604c-2.435-0.023-4.87,0.008-7.305-0.025c-0.537-0.006-0.652,0.164-0.64,0.664
		c0.033,1.314,0.032,2.633,0,3.947c-0.013,0.492,0.092,0.666,0.632,0.658c2.741-0.029,5.483,0.002,8.225-0.027
		c0.529-0.006,0.677,0.146,0.642,0.656c-0.044,0.633-0.024,1.271-0.006,1.906c0.011,0.328-0.073,0.465-0.436,0.465
		c-3.992-0.012-7.985-0.016-11.977,0.004c-0.488,0.002-0.451-0.26-0.451-0.582C86.003,280.281,86.002,277.342,86.002,274.402z"/>
	<path fill-rule="evenodd" clip-rule="evenodd" fill="#3C3C3B" d="M122.951,283.793c1.078-2.471,2.111-4.83,3.14-7.191
		c1.588-3.646,3.181-7.289,4.748-10.943c0.174-0.406,0.361-0.576,0.812-0.545c0.764,0.049,1.705-0.238,2.248,0.115
		c0.537,0.35,0.683,1.311,0.984,2.01c2.288,5.295,4.571,10.594,6.856,15.891c0.285,0.66,0.284,0.662-0.425,0.662
		c-0.877,0.002-1.755-0.021-2.63,0.012c-0.401,0.016-0.577-0.139-0.714-0.494c-0.429-1.121-0.908-2.225-1.331-3.35
		c-0.142-0.371-0.341-0.479-0.725-0.475c-2.323,0.018-4.646,0.018-6.969-0.002c-0.418-0.004-0.607,0.129-0.75,0.523
		c-0.401,1.109-0.866,2.195-1.281,3.299c-0.132,0.352-0.3,0.512-0.705,0.498C125.16,283.77,124.108,283.793,122.951,283.793z
		 M132.434,269.156c-0.965,2.504-1.86,4.838-2.763,7.166c-0.157,0.406,0.138,0.316,0.331,0.316c1.598,0.006,3.195-0.01,4.792,0.01
		c0.479,0.008,0.421-0.174,0.291-0.504c-0.448-1.137-0.872-2.283-1.305-3.426C133.353,271.588,132.924,270.455,132.434,269.156z"/>
	<path fill-rule="evenodd" clip-rule="evenodd" fill="#3C3C3B" d="M214.018,274.404c0-2.895,0.013-5.789-0.013-8.682
		c-0.005-0.494,0.119-0.615,0.611-0.611c3.727,0.021,7.454,0.023,11.182,0c0.51-0.004,0.637,0.146,0.603,0.625
		c-0.041,0.588-0.039,1.186,0,1.773c0.03,0.451-0.142,0.545-0.56,0.541c-2.587-0.018-5.175,0.016-7.761-0.025
		c-0.631-0.01-0.762,0.191-0.739,0.77c0.043,1.094,0.037,2.193,0.001,3.289c-0.016,0.5,0.102,0.672,0.643,0.664
		c2.433-0.031,4.867,0.004,7.301-0.027c0.537-0.008,0.671,0.162,0.632,0.66c-0.04,0.521-0.049,1.055,0.002,1.576
		c0.053,0.523-0.161,0.602-0.627,0.598c-2.434-0.023-4.867,0.006-7.301-0.023c-0.525-0.006-0.664,0.143-0.65,0.658
		c0.037,1.313,0.046,2.631-0.003,3.943c-0.021,0.58,0.18,0.67,0.701,0.664c2.74-0.025,5.481,0,8.222-0.023
		c0.474-0.004,0.667,0.086,0.628,0.604c-0.049,0.654-0.025,1.314-0.007,1.973c0.01,0.342-0.108,0.449-0.452,0.449
		c-3.991-0.012-7.981-0.016-11.972,0.004c-0.496,0.002-0.442-0.273-0.442-0.584C214.019,280.279,214.018,277.342,214.018,274.404z"
		/>
	<path fill-rule="evenodd" clip-rule="evenodd" fill="#3C3C3B" d="M143.78,274.402c0-2.916,0.001-5.834-0.002-8.752
		c-0.001-0.297-0.038-0.549,0.416-0.535c2.52,0.07,5.043-0.117,7.559,0.133c0.811,0.082,1.601,0.258,2.347,0.592
		c2.086,0.93,3.003,2.691,2.827,5.406c-0.135,2.09-1.527,3.711-3.758,4.396c-1.623,0.498-3.292,0.434-4.957,0.428
		c-1.053-0.002-1.053,0-1.053,1.082c0,2.018-0.013,4.035,0.01,6.053c0.005,0.445-0.093,0.623-0.574,0.598
		c-0.743-0.041-1.492-0.037-2.235,0c-0.459,0.021-0.594-0.117-0.59-0.584C143.79,280.279,143.78,277.342,143.78,274.402z
		 M147.16,270.598c0,0.746-0.004,1.49,0.002,2.236c0.001,0.184-0.06,0.43,0.255,0.424c1.441-0.031,2.901,0.158,4.31-0.289
		c1.315-0.418,1.898-1.271,1.833-2.605c-0.058-1.166-0.8-1.955-2.125-2.223c-1.3-0.26-2.618-0.16-3.931-0.186
		c-0.317-0.008-0.35,0.156-0.348,0.406C147.165,269.107,147.16,269.852,147.16,270.598z"/>
	<path fill-rule="evenodd" clip-rule="evenodd" fill="#3C3C3B" d="M77.219,284.238c-2.258-0.039-4.318-0.613-6.012-2.211
		c-0.332-0.313-0.437-0.523-0.009-0.863c0.548-0.434,1.06-0.92,1.543-1.426c0.317-0.334,0.46-0.381,0.83,0.004
		c1.385,1.43,3.08,1.959,5.036,1.449c1.111-0.289,1.866-1.152,1.99-2.119c0.154-1.209-0.385-2.016-1.407-2.574
		c-0.93-0.508-1.961-0.736-2.942-1.104c-0.552-0.207-1.115-0.393-1.649-0.639c-1.78-0.816-2.81-2.176-2.944-4.164
		c-0.139-2.035,0.614-3.641,2.335-4.754c2.697-1.742,6.867-1.549,9.423,0.393c0.387,0.293,0.509,0.494,0.098,0.881
		c-0.509,0.48-0.971,1.014-1.417,1.555c-0.267,0.322-0.417,0.328-0.742,0.031c-1.362-1.244-2.945-1.586-4.686-0.934
		c-0.949,0.355-1.566,1.023-1.621,2.1c-0.055,1.092,0.537,1.773,1.451,2.211c1.206,0.578,2.524,0.85,3.765,1.342
		c1.16,0.459,2.213,1.059,2.951,2.102c1.902,2.693,0.522,6.85-2.712,8.143C79.45,284.08,78.356,284.281,77.219,284.238z"/>
	<path fill-rule="evenodd" clip-rule="evenodd" fill="#A11F45" d="M100.216,185.473c5.726-13.982,15.572-23.844,29.56-29.566
		c0.012,1.012,0.024,2.023,0.036,3.033c-0.157,0.074-0.312,0.156-0.471,0.225c-7.865,3.43-14.414,8.549-19.666,15.33
		c-2.625,3.389-4.717,7.09-6.424,11.016C102.239,185.498,101.228,185.484,100.216,185.473z"/>
	<path fill-rule="evenodd" clip-rule="evenodd" fill="#A11F45" d="M168.021,155.906c6.277,2.449,11.853,6.008,16.754,10.627
		c5.584,5.264,9.804,11.461,12.678,18.574c0.05,0.121,0.086,0.246,0.128,0.371c-1.008,0.006-2.016,0.012-3.023,0.02
		c-0.084-0.178-0.174-0.352-0.253-0.531c-3.919-8.928-9.935-16.104-18.017-21.555c-2.618-1.766-5.415-3.197-8.291-4.484
		C168.005,157.92,168.013,156.914,168.021,155.906z"/>
	<path fill-rule="evenodd" clip-rule="evenodd" fill="#A11F45" d="M197.564,223.717c-5.725,13.959-15.579,23.783-29.535,29.502
		c-0.019-1.01-0.038-2.02-0.057-3.027c0.237-0.111,0.474-0.225,0.713-0.33c8.229-3.648,14.994-9.105,20.301-16.377
		c2.228-3.053,4.017-6.352,5.546-9.797C195.543,223.697,196.555,223.707,197.564,223.717z"/>
	<path fill-rule="evenodd" clip-rule="evenodd" fill="#A11F45" d="M129.796,253.195c-3.233-1.205-6.277-2.789-9.164-4.668
		c-9.17-5.967-15.877-13.996-20.096-24.096c-0.102-0.242-0.174-0.494-0.26-0.742c1-0.004,2-0.012,2.999-0.018
		c0.075,0.158,0.156,0.313,0.226,0.471c3.496,7.965,8.699,14.586,15.621,19.855c3.308,2.516,6.905,4.533,10.711,6.188
		C129.82,251.189,129.809,252.191,129.796,253.195z"/>
	<path fill-rule="evenodd" clip-rule="evenodd" fill="#EED366" d="M197.564,223.717c-1.01-0.01-2.021-0.02-3.031-0.029
		c0.034-0.127,0.057-0.258,0.105-0.379c2.592-6.389,3.828-13.021,3.652-19.926c-0.089-3.494-0.526-6.93-1.313-10.33
		c-0.599-2.586-1.501-5.074-2.421-7.555c1.008-0.008,2.016-0.014,3.023-0.02c1.046,2.441,1.777,4.982,2.355,7.566
		c0.728,3.252,1.123,6.543,1.235,9.881c0.229,6.869-0.882,13.504-3.258,19.939C197.808,223.154,197.682,223.434,197.564,223.717z"/>
	<path fill-rule="evenodd" clip-rule="evenodd" fill="#EED366" d="M103.276,223.672c-1,0.006-2,0.014-3,0.018
		c-0.792-1.641-1.285-3.387-1.777-5.129c-1.568-5.547-2.132-11.213-1.819-16.955c0.302-5.561,1.445-10.955,3.536-16.133
		c1.012,0.012,2.023,0.025,3.035,0.037c-0.07,0.207-0.128,0.418-0.209,0.619c-2.134,5.305-3.311,10.814-3.506,16.525
		c-0.065,1.902-0.046,3.805,0.103,5.709c0.234,3.018,0.746,5.98,1.499,8.906C101.701,219.453,102.504,221.557,103.276,223.672z"/>
	<path fill-rule="evenodd" clip-rule="evenodd" fill="#EED366" d="M168.021,155.906c-0.008,1.008-0.016,2.014-0.024,3.021
		c-0.738-0.271-1.476-0.545-2.216-0.813c-6.748-2.436-13.699-3.332-20.849-2.783c-3.458,0.266-6.84,0.91-10.167,1.881
		c-1.682,0.49-3.305,1.145-4.954,1.727c-0.011-1.01-0.023-2.021-0.035-3.033c3.127-1.287,6.375-2.148,9.691-2.785
		c4.108-0.787,8.261-0.967,12.421-0.76c5.455,0.273,10.739,1.426,15.837,3.402C167.826,155.803,167.922,155.857,168.021,155.906z"/>
	<path fill-rule="evenodd" clip-rule="evenodd" fill="#EED366" d="M129.796,253.195c0.013-1.004,0.024-2.006,0.037-3.01
		c0.924,0.34,1.844,0.691,2.773,1.014c6.326,2.193,12.824,3.084,19.512,2.641c2.735-0.182,5.431-0.586,8.104-1.188
		c2.656-0.598,5.208-1.514,7.751-2.461c0.019,1.008,0.038,2.018,0.057,3.027c-4.124,1.654-8.397,2.699-12.807,3.236
		c-2.637,0.32-5.277,0.439-7.928,0.361c-4.703-0.139-9.308-0.889-13.803-2.289C132.241,254.139,130.984,253.762,129.796,253.195z"/>
	<path fill-rule="evenodd" clip-rule="evenodd" fill="#A11F45" d="M103.225,199.781c1.964-1.15,3.921-2.313,5.891-3.451
		c7.316-4.229,14.638-8.449,21.957-12.674c0.755-0.436,0.889-0.402,1.331,0.365c5.354,9.271,10.706,18.543,16.06,27.813
		c0.13,0.227,0.274,0.443,0.413,0.666c0.172,0.383,0.344,0.768,0.638,1.08c1.312,2.297,2.618,4.596,3.938,6.889
		c1.963,3.412,3.936,6.82,5.902,10.23c0.099,0.172,0.21,0.338,0.28,0.52c0.093,0.244,0.072,0.473-0.186,0.627
		c-0.268,0.162-0.478,0.047-0.628-0.158c-0.182-0.244-0.324-0.52-0.478-0.783c-3.054-5.285-6.106-10.568-9.16-15.852
		c-0.076-0.133-0.167-0.254-0.251-0.381c-0.149-0.42-0.397-0.781-0.646-1.145c-2.02-3.508-4.037-7.018-6.057-10.525
		c-0.086-0.148-0.147-0.334-0.385-0.27c-0.149-0.113-0.327-0.115-0.502-0.129c-2.902-0.217-5.806-0.436-8.709-0.652
		c-5.305-0.396-10.609-0.797-15.914-1.188C112.221,200.432,107.723,200.107,103.225,199.781z"/>
	<path fill-rule="evenodd" clip-rule="evenodd" fill="#EED366" d="M149.514,213.58c-0.294-0.313-0.466-0.697-0.638-1.08
		c0.776-0.98,1.3-2.117,1.922-3.189c4.895-8.449,9.772-16.908,14.658-25.363c0.398-0.689,0.559-0.729,1.247-0.33
		c8.116,4.684,16.23,9.371,24.346,14.057c1.023,0.592,2.054,1.172,3.072,1.771c0.176,0.104,0.455,0.123,0.466,0.42
		c-2.75,0.186-5.501,0.357-8.25,0.563c-4.931,0.365-9.859,0.76-14.79,1.127c-4.474,0.332-8.948,0.633-13.42,0.984
		c-0.712,0.057-1.443-0.016-2.139,0.223c-0.261-0.047-0.327,0.154-0.424,0.324C153.548,206.584,151.53,210.082,149.514,213.58z"/>
	<path fill-rule="evenodd" clip-rule="evenodd" fill="#A11F45" d="M155.988,202.762c0.695-0.238,1.427-0.166,2.139-0.223
		c4.472-0.352,8.946-0.652,13.42-0.984c4.931-0.367,9.859-0.762,14.79-1.127c2.749-0.205,5.5-0.377,8.25-0.563
		c-1.913,3.336-3.824,6.674-5.741,10.006c-1.625,2.822-3.263,5.637-4.88,8.463c-0.199,0.348-0.347,0.422-0.725,0.203
		c-9.008-5.219-18.022-10.424-27.036-15.633C156.131,202.861,156.061,202.811,155.988,202.762z"/>
	<path fill-rule="evenodd" clip-rule="evenodd" fill="#EED366" d="M103.225,199.781c4.498,0.326,8.996,0.65,13.494,0.982
		c5.305,0.391,10.609,0.791,15.914,1.188c2.903,0.217,5.807,0.436,8.709,0.652c0.175,0.014,0.353,0.016,0.502,0.129
		c-1.444,0.994-3.001,1.797-4.514,2.674c-7.561,4.379-15.132,8.736-22.693,13.111c-0.358,0.209-0.534,0.291-0.793-0.162
		c-3.441-6.002-6.907-11.99-10.365-17.984C103.372,200.186,103.201,200.023,103.225,199.781z"/>
	<path fill-rule="evenodd" clip-rule="evenodd" fill="#EED366" d="M148.285,213.527c0.249,0.363,0.497,0.725,0.646,1.145
		c-0.88,1.486-1.772,2.967-2.638,4.463c-2.358,4.076-4.705,8.16-7.059,12.238c-0.186,0.32-0.368,0.746-0.838,0.492
		c-0.507-0.273-0.239-0.66-0.037-1.008c3.166-5.482,6.333-10.963,9.495-16.447C148.019,214.127,148.143,213.822,148.285,213.527z"/>
	<path fill-rule="evenodd" clip-rule="evenodd" fill="#3C3C3B" d="M131.662,182.486c-0.032,0.447-0.282,0.703-0.704,0.701
		c-0.455,0-0.743-0.281-0.716-0.742c0.023-0.416,0.289-0.676,0.733-0.658C131.414,181.805,131.635,182.061,131.662,182.486z"/>
	<path fill-rule="evenodd" clip-rule="evenodd" fill="#EED165" d="M167.59,182.527c-0.031,0.395-0.264,0.682-0.681,0.689
		c-0.431,0.006-0.758-0.234-0.763-0.709c-0.004-0.455,0.269-0.762,0.715-0.76C167.294,181.75,167.581,182.016,167.59,182.527z"/>
</g>
</svg>
