<?xml version="1.0" encoding="utf-8"?>
<!-- Generator: Adobe Illustrator 16.0.0, SVG Export Plug-In . SVG Version: 6.00 Build 0)  -->
<!DOCTYPE svg PUBLIC "-//W3C//DTD SVG 1.1//EN" "http://www.w3.org/Graphics/SVG/1.1/DTD/svg11.dtd">
<svg version="1.1" id="Layer_1" xmlns="http://www.w3.org/2000/svg" xmlns:xlink="http://www.w3.org/1999/xlink" x="0px" y="0px"
	 viewBox="0 0 109.668 108" enable-background="new 0 0 109.668 108" xml:space="preserve">
<g>
	<g>
		<path fill="#394DA1" d="M4.723,51.461c0.154-11.469,8.504-23.077,19.974-22.922c0.06,0,0.118,0.005,0.177,0.006
			c3.08-7.79,10.725-13.255,19.597-13.136c1.752,0.024,3.45,0.266,5.072,0.697c4.25-3.86,9.915-6.187,16.109-6.103
			c12.811,0.171,23.083,10.567,23.172,23.319c0,0-52.838-0.802-65.978,8.455S4.723,51.461,4.723,51.461"/>
	</g>
	<g>
		
			<linearGradient id="SVGID_1_" gradientUnits="userSpaceOnUse" x1="90.4106" y1="27.6714" x2="92.6541" y2="89.1428" gradientTransform="matrix(0.983 0.1838 -0.1838 0.983 5.137 -5.4344)">
			<stop  offset="0" style="stop-color:#006A8F"/>
			<stop  offset="1" style="stop-color:#243E90"/>
		</linearGradient>
		<path fill="url(#SVGID_1_)" d="M82.063,70.963c0.875,0.152,1.765,0.258,2.678,0.284l0.809-0.004
			c0.158-0.003,0.315-0.012,0.472-0.018l-3.959-0.363V70.963z"/>
		
			<linearGradient id="SVGID_2_" gradientUnits="userSpaceOnUse" x1="89.7891" y1="27.7705" x2="92.0274" y2="89.1001" gradientTransform="matrix(0.983 0.1838 -0.1838 0.983 5.137 -5.4344)">
			<stop  offset="0" style="stop-color:#006A8F"/>
			<stop  offset="1" style="stop-color:#243E90"/>
		</linearGradient>
		<path fill="url(#SVGID_2_)" d="M82.063,71.26l2.678-0.014c-0.914-0.025-1.803-0.131-2.678-0.284V71.26z"/>
		
			<linearGradient id="SVGID_3_" gradientUnits="userSpaceOnUse" x1="58.0264" y1="28.9072" x2="60.2662" y2="90.2781" gradientTransform="matrix(0.983 0.1838 -0.1838 0.983 5.137 -5.4344)">
			<stop  offset="0" style="stop-color:#006A8F"/>
			<stop  offset="1" style="stop-color:#243E90"/>
		</linearGradient>
		<path fill="url(#SVGID_3_)" d="M104.037,52.71c0.12-8.966-6.059-16.538-14.431-18.534c-0.091-12.752-10.362-23.148-23.172-23.32
			c-6.195-0.083-11.859,2.243-16.109,6.104c-1.62-0.431-3.318-0.674-5.073-0.697c-8.873-0.119-16.517,5.346-19.597,13.136
			c-0.059,0-0.117-0.006-0.177-0.007C14.009,29.237,4.586,38.41,4.432,49.879c-0.15,11.233,8.646,20.497,19.783,21.019l-2.072-0.009
			l9.749,0.131V50.826c0-5.477,3.177-9.932,7.082-9.932H74.98c3.905,0,7.082,4.455,7.082,9.932v20.035l3.959,0.363
			C95.927,70.813,103.902,62.745,104.037,52.71z"/>
		
			<linearGradient id="SVGID_4_" gradientUnits="userSpaceOnUse" x1="91.5347" y1="27.7417" x2="93.7706" y2="89.0074" gradientTransform="matrix(0.983 0.1838 -0.1838 0.983 5.137 -5.4344)">
			<stop  offset="0" style="stop-color:#006A8F"/>
			<stop  offset="1" style="stop-color:#243E90"/>
		</linearGradient>
		<path fill="url(#SVGID_4_)" d="M84.979,71.263c0.193,0.002,0.38-0.019,0.571-0.021l-0.809,0.004
			C84.821,71.248,84.898,71.262,84.979,71.263z"/>
		
			<linearGradient id="SVGID_5_" gradientUnits="userSpaceOnUse" x1="92.2256" y1="27.2373" x2="94.4942" y2="89.3964" gradientTransform="matrix(0.983 0.1838 -0.1838 0.983 5.137 -5.4344)">
			<stop  offset="0" style="stop-color:#006A8F"/>
			<stop  offset="1" style="stop-color:#243E90"/>
		</linearGradient>
		<path fill="url(#SVGID_5_)" d="M86.176,71.238l-0.154-0.014c-0.157,0.006-0.314,0.015-0.472,0.018L86.176,71.238z"/>
		<linearGradient id="SVGID_6_" gradientUnits="userSpaceOnUse" x1="31.8926" y1="56.0771" x2="82.0625" y2="56.0771">
			<stop  offset="0" style="stop-color:#006A8F"/>
			<stop  offset="1" style="stop-color:#243E90"/>
		</linearGradient>
		<path fill="url(#SVGID_6_)" d="M32.34,50.826c0-5.229,2.977-9.484,6.634-9.484H74.98c3.658,0,6.634,4.255,6.634,9.484v20.393
			l0.448,0.041V50.826c0-5.477-3.177-9.932-7.082-9.932H38.975c-3.905,0-7.082,4.455-7.082,9.932V71.02l0.448,0.006V50.826z"/>
		<linearGradient id="SVGID_7_" gradientUnits="userSpaceOnUse" x1="35.3403" y1="59.6729" x2="78.6147" y2="59.6729">
			<stop  offset="0" style="stop-color:#006A8F"/>
			<stop  offset="1" style="stop-color:#243E90"/>
		</linearGradient>
		<path fill="url(#SVGID_7_)" d="M35.789,56.649c0-4.487,2.549-8.137,5.683-8.137h31.012c3.134,0,5.684,3.65,5.684,8.137v14.632
			l0.448-0.002V56.649c0-4.734-2.75-8.585-6.131-8.585H41.472c-3.38,0-6.131,3.852-6.131,8.585v14.417l0.448,0.005V56.649z"/>
		<linearGradient id="SVGID_8_" gradientUnits="userSpaceOnUse" x1="49.0132" y1="44.2539" x2="64.9419" y2="44.2539">
			<stop  offset="0" style="stop-color:#006A8F"/>
			<stop  offset="1" style="stop-color:#243E90"/>
		</linearGradient>
		<path fill="url(#SVGID_8_)" d="M64.169,43.482H49.786c-0.427,0-0.773,0.346-0.773,0.771c0,0.426,0.346,0.772,0.773,0.772h14.383
			c0.427,0,0.772-0.346,0.772-0.772C64.942,43.828,64.596,43.482,64.169,43.482z"/>
	</g>
</g>
<g>
	<g>
		<g>
			<linearGradient id="SVGID_9_" gradientUnits="userSpaceOnUse" x1="11.5928" y1="90.7554" x2="96.876" y2="90.7554">
				<stop  offset="0" style="stop-color:#006A8F"/>
				<stop  offset="1" style="stop-color:#243E90"/>
			</linearGradient>
			<path fill="url(#SVGID_9_)" d="M26.108,91.222h-3.973l-1.191-5.42c-0.057-0.228-0.146-0.678-0.269-1.353
				c-0.122-0.675-0.211-1.24-0.267-1.694c-0.046,0.369-0.121,0.827-0.223,1.374c-0.103,0.548-0.202,1.051-0.302,1.511
				c-0.1,0.46-0.512,2.321-1.238,5.583h-3.975l-3.079-12.441h3.241l1.354,6.237c0.307,1.379,0.517,2.477,0.629,3.293
				c0.074-0.579,0.207-1.364,0.396-2.357c0.19-0.993,0.366-1.815,0.531-2.468l1.099-4.706h3.113l1.064,4.706
				c0.182,0.755,0.365,1.625,0.554,2.613c0.186,0.987,0.312,1.725,0.374,2.212c0.074-0.63,0.275-1.722,0.604-3.276l1.379-6.254
				h3.241L26.108,91.222z"/>
			<linearGradient id="SVGID_10_" gradientUnits="userSpaceOnUse" x1="11.5928" y1="90.7554" x2="96.876" y2="90.7554">
				<stop  offset="0" style="stop-color:#006A8F"/>
				<stop  offset="1" style="stop-color:#243E90"/>
			</linearGradient>
			<path fill="url(#SVGID_10_)" d="M38.168,91.222h-7.387V78.781h7.387v2.697h-4.026v1.958h3.729v2.697h-3.729v2.349h4.026V91.222z"
				/>
			<linearGradient id="SVGID_11_" gradientUnits="userSpaceOnUse" x1="11.5928" y1="90.7554" x2="96.876" y2="90.7554">
				<stop  offset="0" style="stop-color:#006A8F"/>
				<stop  offset="1" style="stop-color:#243E90"/>
			</linearGradient>
			<path fill="url(#SVGID_11_)" d="M47.979,91.222l-0.612-2.332h-4.043l-0.63,2.332h-3.692L43.06,78.73h4.485l4.111,12.492H47.979z
				 M46.668,86.133l-0.535-2.042c-0.125-0.454-0.276-1.041-0.456-1.762c-0.178-0.721-0.296-1.236-0.352-1.549
				c-0.053,0.29-0.152,0.766-0.303,1.43s-0.484,1.972-1,3.923H46.668z"/>
			<linearGradient id="SVGID_12_" gradientUnits="userSpaceOnUse" x1="11.5928" y1="90.7554" x2="96.876" y2="90.7554">
				<stop  offset="0" style="stop-color:#006A8F"/>
				<stop  offset="1" style="stop-color:#243E90"/>
			</linearGradient>
			<path fill="url(#SVGID_12_)" d="M58.49,91.222h-3.362V81.53h-3.037v-2.749h9.429v2.749H58.49V91.222z"/>
			<linearGradient id="SVGID_13_" gradientUnits="userSpaceOnUse" x1="11.5928" y1="90.7554" x2="96.876" y2="90.7554">
				<stop  offset="0" style="stop-color:#006A8F"/>
				<stop  offset="1" style="stop-color:#243E90"/>
			</linearGradient>
			<path fill="url(#SVGID_13_)" d="M73.959,91.222H70.58V86.15h-3.905v5.072h-3.379V78.781h3.379v4.612h3.905v-4.612h3.379V91.222z"
				/>
			<linearGradient id="SVGID_14_" gradientUnits="userSpaceOnUse" x1="11.5928" y1="90.7554" x2="96.876" y2="90.7554">
				<stop  offset="0" style="stop-color:#006A8F"/>
				<stop  offset="1" style="stop-color:#243E90"/>
			</linearGradient>
			<path fill="url(#SVGID_14_)" d="M84.034,91.222h-7.386V78.781h7.386v2.697h-4.025v1.958h3.729v2.697h-3.729v2.349h4.025V91.222z"
				/>
			<linearGradient id="SVGID_15_" gradientUnits="userSpaceOnUse" x1="11.5928" y1="90.7554" x2="96.876" y2="90.7554">
				<stop  offset="0" style="stop-color:#006A8F"/>
				<stop  offset="1" style="stop-color:#243E90"/>
			</linearGradient>
			<path fill="url(#SVGID_15_)" d="M89.573,86.695v4.527h-3.36V78.781h4.075c3.382,0,5.072,1.225,5.072,3.676
				c0,1.44-0.703,2.555-2.11,3.344l3.626,5.42h-3.813l-2.639-4.527H89.573z M89.573,84.167h0.631c1.174,0,1.761-0.519,1.761-1.557
				c0-0.857-0.575-1.285-1.727-1.285h-0.665V84.167z"/>
		</g>
		<g>
			<linearGradient id="SVGID_16_" gradientUnits="userSpaceOnUse" x1="11.5928" y1="90.7554" x2="96.876" y2="90.7554">
				<stop  offset="0" style="stop-color:#006A8F"/>
				<stop  offset="1" style="stop-color:#243E90"/>
			</linearGradient>
			<path fill="url(#SVGID_16_)" d="M30.461,98.281c0,1.386-0.347,2.483-1.04,3.29c-0.693,0.806-1.649,1.21-2.868,1.21
				c-1.216,0-2.169-0.404-2.862-1.21c-0.693-0.807-1.041-1.908-1.041-3.302c0-1.391,0.351-2.485,1.049-3.284
				c0.7-0.799,1.655-1.198,2.866-1.198c1.219,0,2.173,0.401,2.863,1.204C30.116,95.793,30.461,96.89,30.461,98.281z M23.313,98.281
				c0,1.251,0.278,2.218,0.836,2.901c0.559,0.683,1.359,1.025,2.403,1.025c1.052,0,1.854-0.339,2.411-1.016
				c0.556-0.677,0.833-1.647,0.833-2.91c0-1.259-0.277-2.224-0.833-2.896c-0.557-0.671-1.356-1.007-2.399-1.007
				c-1.04,0-1.842,0.339-2.405,1.016C23.596,96.071,23.313,97.034,23.313,98.281z"/>
			<linearGradient id="SVGID_17_" gradientUnits="userSpaceOnUse" x1="11.5928" y1="90.7554" x2="96.876" y2="90.7554">
				<stop  offset="0" style="stop-color:#006A8F"/>
				<stop  offset="1" style="stop-color:#243E90"/>
			</linearGradient>
			<path fill="url(#SVGID_17_)" d="M38.821,102.661h-0.615l-5.177-7.757h-0.048c0.048,0.924,0.072,1.621,0.072,2.091v5.666h-0.585
				v-8.737h0.608l5.17,7.745h0.036c-0.036-0.717-0.054-1.398-0.054-2.043v-5.701h0.592V102.661z"/>
			<linearGradient id="SVGID_18_" gradientUnits="userSpaceOnUse" x1="11.5928" y1="90.7554" x2="96.876" y2="90.7554">
				<stop  offset="0" style="stop-color:#006A8F"/>
				<stop  offset="1" style="stop-color:#243E90"/>
			</linearGradient>
			<path fill="url(#SVGID_18_)" d="M46.752,102.661h-0.616v-8.164h-2.838v-0.573h6.293v0.573h-2.839V102.661z"/>
			<linearGradient id="SVGID_19_" gradientUnits="userSpaceOnUse" x1="11.5928" y1="90.7554" x2="96.876" y2="90.7554">
				<stop  offset="0" style="stop-color:#006A8F"/>
				<stop  offset="1" style="stop-color:#243E90"/>
			</linearGradient>
			<path fill="url(#SVGID_19_)" d="M57.217,102.661h-0.615v-4.297h-5.104v4.297h-0.609v-8.737h0.609v3.878h5.104v-3.878h0.615
				V102.661z"/>
			<linearGradient id="SVGID_20_" gradientUnits="userSpaceOnUse" x1="11.5928" y1="90.7554" x2="96.876" y2="90.7554">
				<stop  offset="0" style="stop-color:#006A8F"/>
				<stop  offset="1" style="stop-color:#243E90"/>
			</linearGradient>
			<path fill="url(#SVGID_20_)" d="M64.465,102.661H59.69v-8.737h4.774v0.562h-4.166v3.305h3.934v0.562h-3.934v3.747h4.166V102.661z
				"/>
			<linearGradient id="SVGID_21_" gradientUnits="userSpaceOnUse" x1="11.5928" y1="90.7554" x2="96.876" y2="90.7554">
				<stop  offset="0" style="stop-color:#006A8F"/>
				<stop  offset="1" style="stop-color:#243E90"/>
			</linearGradient>
			<path fill="url(#SVGID_21_)" d="M73.059,98.257h3.221v3.986c-0.844,0.359-1.795,0.538-2.85,0.538
				c-1.379,0-2.436-0.389-3.171-1.168c-0.735-0.779-1.103-1.881-1.103-3.308c0-0.889,0.183-1.677,0.547-2.363
				c0.365-0.688,0.886-1.218,1.565-1.593c0.68-0.375,1.459-0.562,2.34-0.562c0.953,0,1.807,0.175,2.564,0.526l-0.245,0.55
				c-0.757-0.351-1.542-0.526-2.355-0.526c-1.15,0-2.064,0.355-2.739,1.067c-0.676,0.711-1.014,1.67-1.014,2.877
				c0,1.314,0.321,2.304,0.962,2.967c0.642,0.663,1.584,0.995,2.827,0.995c0.805,0,1.488-0.113,2.05-0.34v-3.072h-2.6V98.257z"/>
			<linearGradient id="SVGID_22_" gradientUnits="userSpaceOnUse" x1="11.5928" y1="90.7554" x2="96.876" y2="90.7554">
				<stop  offset="0" style="stop-color:#006A8F"/>
				<stop  offset="1" style="stop-color:#243E90"/>
			</linearGradient>
			<path fill="url(#SVGID_22_)" d="M85.818,98.281c0,1.386-0.347,2.483-1.04,3.29c-0.693,0.806-1.649,1.21-2.868,1.21
				c-1.216,0-2.169-0.404-2.862-1.21c-0.693-0.807-1.041-1.908-1.041-3.302c0-1.391,0.351-2.485,1.049-3.284
				c0.7-0.799,1.655-1.198,2.866-1.198c1.219,0,2.174,0.401,2.863,1.204C85.474,95.793,85.818,96.89,85.818,98.281z M78.671,98.281
				c0,1.251,0.278,2.218,0.837,2.901c0.558,0.683,1.358,1.025,2.402,1.025c1.052,0,1.855-0.339,2.411-1.016
				c0.556-0.677,0.833-1.647,0.833-2.91c0-1.259-0.277-2.224-0.833-2.896s-1.355-1.007-2.399-1.007c-1.04,0-1.842,0.339-2.405,1.016
				C78.953,96.071,78.671,97.034,78.671,98.281z"/>
		</g>
	</g>
	<g>
		<g>
			<path d="M26.108,91.222h-3.973l-1.191-5.42c-0.057-0.228-0.146-0.678-0.269-1.353c-0.122-0.675-0.211-1.24-0.267-1.694
				c-0.046,0.369-0.121,0.827-0.223,1.374c-0.103,0.548-0.202,1.051-0.302,1.511c-0.1,0.46-0.512,2.321-1.238,5.583h-3.975
				l-3.079-12.441h3.241l1.354,6.237c0.307,1.379,0.517,2.477,0.629,3.293c0.074-0.579,0.207-1.364,0.396-2.357
				c0.19-0.993,0.366-1.815,0.531-2.468l1.099-4.706h3.113l1.064,4.706c0.182,0.755,0.365,1.625,0.554,2.613
				c0.186,0.987,0.312,1.725,0.374,2.212c0.074-0.63,0.275-1.722,0.604-3.276l1.379-6.254h3.241L26.108,91.222z"/>
			<path d="M38.168,91.222h-7.387V78.781h7.387v2.697h-4.026v1.958h3.729v2.697h-3.729v2.349h4.026V91.222z"/>
			<path d="M47.979,91.222l-0.612-2.332h-4.043l-0.63,2.332h-3.692L43.06,78.73h4.485l4.111,12.492H47.979z M46.668,86.133
				l-0.535-2.042c-0.125-0.454-0.276-1.041-0.456-1.762c-0.178-0.721-0.296-1.236-0.352-1.549c-0.053,0.29-0.152,0.766-0.303,1.43
				s-0.484,1.972-1,3.923H46.668z"/>
			<path d="M58.49,91.222h-3.362V81.53h-3.037v-2.749h9.429v2.749H58.49V91.222z"/>
			<path d="M73.959,91.222H70.58V86.15h-3.905v5.072h-3.379V78.781h3.379v4.612h3.905v-4.612h3.379V91.222z"/>
			<path d="M84.034,91.222h-7.386V78.781h7.386v2.697h-4.025v1.958h3.729v2.697h-3.729v2.349h4.025V91.222z"/>
			<path d="M89.573,86.695v4.527h-3.36V78.781h4.075c3.382,0,5.072,1.225,5.072,3.676c0,1.44-0.703,2.555-2.11,3.344l3.626,5.42
				h-3.813l-2.639-4.527H89.573z M89.573,84.167h0.631c1.174,0,1.761-0.519,1.761-1.557c0-0.857-0.575-1.285-1.727-1.285h-0.665
				V84.167z"/>
		</g>
		<g>
			<path d="M30.461,98.281c0,1.386-0.347,2.483-1.04,3.29c-0.693,0.806-1.649,1.21-2.868,1.21c-1.216,0-2.169-0.404-2.862-1.21
				c-0.693-0.807-1.041-1.908-1.041-3.302c0-1.391,0.351-2.485,1.049-3.284c0.7-0.799,1.655-1.198,2.866-1.198
				c1.219,0,2.173,0.401,2.863,1.204C30.116,95.793,30.461,96.89,30.461,98.281z M23.313,98.281c0,1.251,0.278,2.218,0.836,2.901
				c0.559,0.683,1.359,1.025,2.403,1.025c1.052,0,1.854-0.339,2.411-1.016c0.556-0.677,0.833-1.647,0.833-2.91
				c0-1.259-0.277-2.224-0.833-2.896c-0.557-0.671-1.356-1.007-2.399-1.007c-1.04,0-1.842,0.339-2.405,1.016
				C23.596,96.071,23.313,97.034,23.313,98.281z"/>
			<path d="M38.821,102.661h-0.615l-5.177-7.757h-0.048c0.048,0.924,0.072,1.621,0.072,2.091v5.666h-0.585v-8.737h0.608l5.17,7.745
				h0.036c-0.036-0.717-0.054-1.398-0.054-2.043v-5.701h0.592V102.661z"/>
			<path d="M46.752,102.661h-0.616v-8.164h-2.838v-0.573h6.293v0.573h-2.839V102.661z"/>
			<path d="M57.217,102.661h-0.615v-4.297h-5.104v4.297h-0.609v-8.737h0.609v3.878h5.104v-3.878h0.615V102.661z"/>
			<path d="M64.465,102.661H59.69v-8.737h4.774v0.562h-4.166v3.305h3.934v0.562h-3.934v3.747h4.166V102.661z"/>
			<path d="M73.059,98.257h3.221v3.986c-0.844,0.359-1.795,0.538-2.85,0.538c-1.379,0-2.436-0.389-3.171-1.168
				c-0.735-0.779-1.103-1.881-1.103-3.308c0-0.889,0.183-1.677,0.547-2.363c0.365-0.688,0.886-1.218,1.565-1.593
				c0.68-0.375,1.459-0.562,2.34-0.562c0.953,0,1.807,0.175,2.564,0.526l-0.245,0.55c-0.757-0.351-1.542-0.526-2.355-0.526
				c-1.15,0-2.064,0.355-2.739,1.067c-0.676,0.711-1.014,1.67-1.014,2.877c0,1.314,0.321,2.304,0.962,2.967
				c0.642,0.663,1.584,0.995,2.827,0.995c0.805,0,1.488-0.113,2.05-0.34v-3.072h-2.6V98.257z"/>
			<path d="M85.818,98.281c0,1.386-0.347,2.483-1.04,3.29c-0.693,0.806-1.649,1.21-2.868,1.21c-1.216,0-2.169-0.404-2.862-1.21
				c-0.693-0.807-1.041-1.908-1.041-3.302c0-1.391,0.351-2.485,1.049-3.284c0.7-0.799,1.655-1.198,2.866-1.198
				c1.219,0,2.174,0.401,2.863,1.204C85.474,95.793,85.818,96.89,85.818,98.281z M78.671,98.281c0,1.251,0.278,2.218,0.837,2.901
				c0.558,0.683,1.358,1.025,2.402,1.025c1.052,0,1.855-0.339,2.411-1.016c0.556-0.677,0.833-1.647,0.833-2.91
				c0-1.259-0.277-2.224-0.833-2.896s-1.355-1.007-2.399-1.007c-1.04,0-1.842,0.339-2.405,1.016
				C78.953,96.071,78.671,97.034,78.671,98.281z"/>
		</g>
	</g>
</g>
</svg>
