<?xml version="1.0" encoding="utf-8"?>
<!-- Generator: Adobe Illustrator 16.0.0, SVG Export Plug-In . SVG Version: 6.00 Build 0)  -->
<!DOCTYPE svg PUBLIC "-//W3C//DTD SVG 1.1//EN" "http://www.w3.org/Graphics/SVG/1.1/DTD/svg11.dtd">
<svg version="1.1" id="Layer_1" xmlns="http://www.w3.org/2000/svg" xmlns:xlink="http://www.w3.org/1999/xlink" x="0px" y="0px"
	  viewBox="0 0 682.062 228.084" enable-background="new 0 0 682.062 228.084"
	 xml:space="preserve">
<g>
	<path fill-rule="evenodd" clip-rule="evenodd" fill="#FFFFFF" d="M42.589,163.407c23.306,0,46.257,0,69.558,0
		c0-23.966,0-47.724,0-71.657c2.621-0.699,4.961-1.322,7.832-2.088c0.095,1.677,0.233,3.017,0.233,4.356
		c0.014,26.668,0.024,53.337,0.003,80.008c-0.009,10.093-5.594,15.725-15.624,15.741c-18.214,0.03-36.427,0.029-54.64,0
		c-9.917-0.017-15.669-5.835-15.66-15.868c0.028-29.785,0.108-59.571,0.139-89.357c0.008-7.02-0.149-14.04-0.139-21.06
		c0.013-9.784,5.788-15.625,15.457-15.643c17.027-0.03,34.055-0.008,51.314-0.008c-0.389,3.919-0.752,7.564-1.148,11.555
		c-19.028,0-37.961,0-57.326,0C42.589,94.131,42.589,128.521,42.589,163.407z M77.411,183.813c4.504-0.027,8.229-3.807,8.103-8.22
		c-0.128-4.489-3.904-8.02-8.451-7.901c-4.42,0.115-7.774,3.585-7.781,8.051C69.274,180.385,72.757,183.843,77.411,183.813z
		 M90.495,53.961c-3.645-2.612-24.321-2.282-27.174,0C72.854,53.961,81.675,53.961,90.495,53.961z"/>
	<path fill-rule="evenodd" clip-rule="evenodd" fill="#FFFFFF" d="M88.415,91.103c0.837-0.595,1.63-1.266,2.516-1.774
		c6.686-3.829,11.199-9.519,14.431-16.412c1.395-2.975,1.626-5.591,0.404-8.854c-3.988-10.651,0.557-22.165,11.258-29.741
		c16.102-11.399,40.88-10.657,56.194,1.684c13.337,10.747,14.157,28.261,1.326,39.582c-12.727,11.232-27.769,13.021-43.911,9.374
		c-2.861-0.646-6.098-0.57-8.988,0.02c-10.035,2.048-19.994,4.483-29.992,6.728c-0.947,0.212-1.962,0.119-2.946,0.168
		C88.609,91.619,88.512,91.361,88.415,91.103z M148.167,58.014c0.222,0.039,0.442,0.078,0.663,0.118
		c0.171,2.223,0.342,4.446,0.503,6.569c1.748,0,3.085,0,4.655,0c-0.412-6.512-0.804-12.691-1.206-19.057
		c-1.624,0-3.685-0.481-4.025,0.081c-1.831,3.018-3.231,6.296-4.912,9.751c-0.919-2.48-2.005-4.69-2.54-7.026
		c-0.807-3.526-3.054-3.188-5.961-2.551c-0.427,6.258-0.854,12.528-1.284,18.84c1.827,0,3.166,0,4.552,0
		c0.181-2.23,0.34-4.175,0.498-6.121c1.263,1.523,1.641,3.145,2.374,4.584c0.384,0.752,1.426,1.683,2.111,1.638
		c0.891-0.059,2.063-0.818,2.508-1.614C147.007,61.61,147.504,59.765,148.167,58.014z M159.026,63.576
		c1.171,0.561,1.939,1.08,2.787,1.312c4.641,1.27,8.669-0.281,9.873-3.728c1.22-3.49-0.155-5.701-4.979-8.236
		c-0.887-0.466-1.612-1.241-2.413-1.874c0.158-0.412,0.315-0.824,0.474-1.236c1.768,0.199,3.534,0.397,5.649,0.635
		c0.337-1.034,0.75-2.305,1.349-4.141c-2.323-0.342-4.187-0.833-6.051-0.839c-2.852-0.01-5.064,1.346-5.8,4.226
		c-0.775,3.033,0.538,5.166,3.227,6.771c1.433,0.857,2.506,2.32,3.741,3.509c-1.871-0.063-3.74-0.123-5.61-0.188
		c-0.247-0.008-0.493-0.043-0.941-0.085C159.945,60.846,159.547,62.026,159.026,63.576z M127.526,50.392
		c-0.129-1.292,0.274-3.303-0.524-4.083c-2.192-2.141-8.005-0.846-9.753,1.807c-1.921,2.92-0.867,6.168,2.379,8.257
		c1.51,0.971,2.69,2.448,4.021,3.695c-2.016-0.125-4.029-0.251-6.045-0.374c-0.115-0.007-0.233,0.014-1.061,0.071
		c0.094,1.436-0.043,4.152,0.328,4.225c2.699,0.521,5.683,1.146,8.201,0.426c1.551-0.443,3.026-3.055,3.492-4.949
		c0.719-2.921-1.423-4.732-3.895-6.017c-1.274-0.663-2.494-1.433-3.74-2.154c0.117-0.454,0.234-0.906,0.35-1.359
		C123.133,50.071,124.988,50.207,127.526,50.392z"/>
	<path fill-rule="evenodd" clip-rule="evenodd" fill="#FFFFFF" d="M77.351,129.612c-10.776-9.189-21.217-18.094-32.271-27.521
		c21.694,0,42.592,0,64.451,0C98.549,111.483,88.1,120.421,77.351,129.612z"/>
	<path fill-rule="evenodd" clip-rule="evenodd" fill="#FFFFFF" d="M77.347,132.59c4.497-3.8,8.823-7.454,13.277-11.217
		c6.03,4.604,11.911,9.046,17.711,13.592c0.69,0.541,1.482,1.86,1.258,2.448c-0.345,0.906-1.433,1.7-2.39,2.146
		c-0.754,0.351-1.785,0.122-2.692,0.122c-18.039,0.003-36.077,0.003-54.114,0c-0.909-0.002-1.92,0.206-2.698-0.124
		c-0.965-0.408-2.093-1.123-2.468-1.998c-0.258-0.601,0.407-2.005,1.07-2.529c5.791-4.573,11.673-9.027,17.71-13.656
		C68.49,125.14,72.816,128.778,77.347,132.59z"/>
	<path fill-rule="evenodd" clip-rule="evenodd" fill="#FFFFFF" d="M109.771,105.011c0,9.777,0,18.475,0,28.138
		c-6.142-4.521-11.777-8.668-17.71-13.034C97.948,115.093,103.524,110.338,109.771,105.011z"/>
	<path fill-rule="evenodd" clip-rule="evenodd" fill="#FFFFFF" d="M45.203,105.284c6.054,5.155,11.562,9.844,17.4,14.816
		c-5.808,4.279-11.375,8.382-17.4,12.823C45.203,123.536,45.203,114.794,45.203,105.284z"/>
</g>
<g>
	<polygon fill-rule="evenodd" clip-rule="evenodd" fill="#FFFFFF" points="277.953,110.953 310.177,78.729 277.953,46.504 
		277.953,63.93 199.084,63.93 199.084,93.527 277.953,93.527 	"/>
	<polygon fill-rule="evenodd" clip-rule="evenodd" fill="#FFFFFF" points="231.309,115.436 199.084,147.66 231.309,179.885 
		231.309,162.459 310.177,162.459 310.177,132.861 231.309,132.861 	"/>
</g>
<g>
	<path fill-rule="evenodd" clip-rule="evenodd" fill="#FFFFFF" d="M326.754,166.505c0-1.467,0-2.863,0-4.259
		c0-41.896-0.004-83.793,0.001-125.69c0.003-11.287,6.229-17.59,17.413-17.6c19.575-0.017,39.15-0.016,58.727,0
		c11.053,0.009,17.348,6.254,17.353,17.277c0.018,42.255,0.007,84.509,0.006,126.764c0,1.059,0,2.117,0,3.508
		C389.052,166.505,358.115,166.505,326.754,166.505z M373.364,79.694c0-0.025,0-0.049,0-0.074c9.899,0,19.799-0.039,29.697,0.024
		c2.96,0.019,4.467-1.086,4.348-4.21c-0.101-2.619-0.021-5.249,0.07-7.87c0.098-2.806-1.114-4.251-3.988-4.25
		c-20.038,0.01-40.074,0.007-60.111,0.005c-2.482,0-3.781,1.279-3.863,3.705c-0.085,2.622-0.095,5.248-0.041,7.87
		c0.082,3.993,0.971,4.806,4.908,4.802C354.043,79.686,363.704,79.694,373.364,79.694z M373.236,49.409c0-0.018,0-0.036,0-0.054
		c9.896,0,19.792-0.063,29.687,0.037c3.179,0.032,4.641-1.155,4.49-4.415c-0.12-2.616-0.005-5.244,0.057-7.866
		c0.063-2.673-1.18-3.957-3.87-3.955c-20.029,0.014-40.058,0.02-60.086-0.01c-2.702-0.004-3.969,1.302-4.018,3.893
		c-0.048,2.622,0.021,5.247-0.042,7.868c-0.081,3.345,1.447,4.606,4.813,4.555C353.921,49.313,363.58,49.409,373.236,49.409z"/>
	<path fill-rule="evenodd" clip-rule="evenodd" fill="#FFFFFF" d="M548.831,194.88c-28.182,0-56.364,0.021-84.546-0.032
		c-2.968-0.006-6.019-0.078-8.888-0.743c-11.391-2.637-19.049-12.231-19.074-24.177c-0.088-42.631-0.12-85.263,0.015-127.894
		c0.046-14.296,11.165-25.004,25.469-25.011c58.036-0.024,116.072-0.013,174.108-0.007c15.225,0,25.253,12.747,25.139,25.208
		c-0.389,42.748-0.146,85.5-0.151,128.25c-0.002,12.907-9.7,23.342-22.514,24.223c-1.904,0.132-3.818,0.174-5.727,0.174
		C604.717,194.883,576.775,194.88,548.831,194.88z M548.525,182.013c28.426,0,56.854,0.001,85.28-0.001
		c10.27,0,14.465-4.242,14.466-14.619c0.002-41.088-0.185-82.177,0.141-123.262c0.076-9.765-6.633-14.378-14.32-14.355
		c-56.853,0.168-113.708,0.088-170.562,0.094c-9.631,0.002-14.452,4.616-14.465,14.193c-0.055,41.327-0.051,82.653-0.002,123.979
		c0.01,9.518,4.641,13.967,14.182,13.97C491.67,182.017,520.097,182.013,548.525,182.013z"/>
	<path fill-rule="evenodd" clip-rule="evenodd" fill="#FFFFFF" d="M420.081,173.681c0,10.604,0.45,20.757-0.145,30.848
		c-0.46,7.83-7.479,13.154-16.115,13.236c-11.466,0.11-22.933,0.03-34.398,0.032c-8.601,0-17.2,0.06-25.8-0.019
		c-10.626-0.099-16.84-6.424-16.863-17.062c-0.021-8.937-0.005-17.873-0.005-27.036
		C358.001,173.681,388.879,173.681,420.081,173.681z M383.345,195.701c0.032-5.27-4.48-9.756-9.802-9.747
		c-5.313,0.007-9.818,4.399-9.94,9.689c-0.12,5.268,4.284,9.789,9.658,9.905C378.745,205.669,383.313,201.208,383.345,195.701z"/>
	<path fill-rule="evenodd" clip-rule="evenodd" fill="#FFFFFF" d="M552.19,215.81c-10.5,0-21,0.004-31.502-0.004
		c-4.857-0.003-7.753-2.461-7.666-6.483c0.084-3.905,2.829-6.202,7.571-6.206c21.121-0.017,42.24-0.019,63.36,0
		c4.751,0.004,7.493,2.338,7.492,6.235c-0.001,3.929-2.766,6.408-7.396,6.43c-10.618,0.045-21.239,0.014-31.859,0.014
		C552.19,215.799,552.19,215.803,552.19,215.81z"/>
	<path fill-rule="evenodd" clip-rule="evenodd" fill="#FFFFFF" d="M548.85,167.488c-25.435,0-50.871,0-76.306,0
		c-7.293,0-9.479-2.13-9.479-9.268c-0.004-34.87-0.005-69.739,0-104.608c0.002-6.77,2.461-9.223,9.328-9.223
		c50.99-0.009,101.98-0.01,152.97,0c6.773,0.001,9.154,2.566,9.146,9.366c-0.041,34.272-0.034,68.544-0.044,102.815
		c-0.002,9.311-1.634,10.917-11.1,10.917C598.527,167.488,573.689,167.488,548.85,167.488z"/>
</g>
</svg>
