<?xml version="1.0" encoding="utf-8"?>
<!-- Generator: Adobe Illustrator 16.0.0, SVG Export Plug-In . SVG Version: 6.00 Build 0)  -->
<!DOCTYPE svg PUBLIC "-//W3C//DTD SVG 1.1//EN" "http://www.w3.org/Graphics/SVG/1.1/DTD/svg11.dtd">
<svg version="1.1" id="Layer_1" xmlns="http://www.w3.org/2000/svg" xmlns:xlink="http://www.w3.org/1999/xlink" x="0px" y="0px"
	 viewBox="0 0 300 300" enable-background="new 0 0 300 300" xml:space="preserve">
<g>
	<path fill-rule="evenodd" clip-rule="evenodd" fill="#F6EC13" d="M-388.027,14.119c-7.48,14.322-13.188,25.253-19.304,36.967
		c11.02-0.991,20.901-1.88,30.784-2.77c0.405,0.801,0.809,1.602,1.214,2.401c-29.761,28.048-59.521,56.096-89.281,84.144
		c-0.902-0.656-1.805-1.312-2.707-1.966c10.18-18.7,20.358-37.398,31.234-57.376c-7.435,1.424-13.369,2.56-21.137,4.047
		c2.602-10.536,4.837-19.841,7.208-29.112c2.349-9.186,5.039-18.288,7.19-27.518c1.443-6.188,3.859-9.421,11.219-9.027
		C-417.902,14.641-404.133,14.119-388.027,14.119z M-450.746,73.057c7.935-1.394,14.324-2.516,23.34-4.1
		c-8.633,16.322-15.885,30.031-23.136,43.739c0.532,0.303,1.064,0.607,1.595,0.91c20.689-19.491,41.379-38.984,63.001-59.356
		c-10.302,0.586-18.803,1.068-29.435,1.672c6.903-13.288,12.522-24.102,19.048-36.658c-12.883,0-23.731-0.297-34.538,0.224
		c-2.482,0.12-6.368,2.601-6.992,4.753C-442.41,39.934-446.291,55.823-450.746,73.057z"/>
</g>
<path fill-rule="evenodd" clip-rule="evenodd" fill="#23231B" d="M-280.612-54.053c0-31.371-25.431-56.804-56.806-56.804
	c-2.063,0-4.099,0.117-6.104,0.331c-9.594-19.298-29.5-32.568-52.516-32.568c-20.645,0-38.786,10.684-49.229,26.815
	c-7.97-7.785-18.864-12.59-30.885-12.59c-24.417,0-44.213,19.795-44.213,44.213c0,0.042,0.003,0.081,0.003,0.122
	c-20.351,3.964-35.714,21.878-35.714,43.388c0,24.417,19.795,44.213,44.212,44.213c2.753,0,5.443-0.265,8.057-0.747l172.453,0.747
	c0.973,0,1.36-0.311,1.434-0.824C-302.092-1.427-280.612-25.224-280.612-54.053z"/>
<path opacity="0.4" d="M-303.128-45.414c0-22.908-18.567-41.479-41.477-41.479c-15.238,0-28.521,8.24-35.73,20.484
	c-5.339-3.862-11.878-6.164-18.969-6.164c-2.006,0-3.96,0.208-5.863,0.557c-7.609-9.088-19.028-14.876-31.808-14.876
	c-15.238,0-28.521,8.24-35.73,20.484c-5.339-3.862-11.878-6.164-18.969-6.164c-17.914,0-32.434,14.521-32.434,32.433
	c0,5.89,1.594,11.396,4.338,16.156c-0.564-2.395-0.893-4.88-0.893-7.447c0-17.912,14.52-32.432,32.434-32.432
	c4.583,0,8.942,0.963,12.896,2.68c0.914,0.397,1.809,0.829,2.677,1.305c5.223,2.865,9.548,7.136,12.518,12.29
	c-1.481-6.292-4.784-11.866-9.335-16.15c7.573-8.149,18.351-13.278,30.356-13.278c9.26,0,17.78,3.072,24.683,8.2
	c-10.288,5.438-17.304,16.232-17.304,28.677c0,5.89,1.594,11.396,4.338,16.156c-0.564-2.395-0.893-4.88-0.893-7.447
	c0-13.973,8.853-25.847,21.243-30.409c2.324-0.855,4.765-1.465,7.305-1.769c1.277-0.152,2.569-0.255,3.887-0.255
	c4.583,0,8.942,0.963,12.896,2.68c0.914,0.397,1.81,0.829,2.677,1.305c5.224,2.865,9.548,7.136,12.519,12.29
	c-1.481-6.292-4.783-11.866-9.336-16.15c7.573-8.149,18.352-13.278,30.357-13.278c22.909,0,41.477,18.57,41.477,41.479
	c0,1.258-0.078,2.498-0.189,3.728C-303.973-36.077-303.128-40.642-303.128-45.414z"/>
<g>
	<path fill="none" d="M80.167,173.217c10.162,36.296,43.536,62.995,83.032,62.995c47.537,0,86.211-38.676,86.211-86.211
		c0-47.538-38.674-86.211-86.211-86.211c-43.41,0-79.422,32.253-85.35,74.053l35.643,35.137L80.167,173.217z"/>
	<g>
		<path fill="#F6EC13" d="M81.017,138.346l-0.51-0.504l-16.799-16.56l-19.312,19.589l-0.354,0.359l-32.031,32.492l33.987-0.243
			c10.979,56.148,60.545,98.652,119.859,98.652c67.345,0,122.133-54.787,122.133-122.131c0-67.345-54.788-122.133-122.133-122.133
			c-63.047,0-115.076,48.024-121.46,109.411l19.312-19.59l16.799,16.561l0.51,0.503c7.223-40.287,42.506-70.964,84.839-70.964
			c47.537,0,86.211,38.674,86.211,86.212c0,47.535-38.674,86.211-86.211,86.211c-39.496,0-72.87-26.699-83.032-62.995l33.325-0.238
			L81.017,138.346"/>
		
			<radialGradient id="SVGID_1_" cx="88.6631" cy="95.4448" r="60.2252" fx="62.34" fy="149.6128" gradientTransform="matrix(0.9467 0.3221 -0.485 1.4256 51.0178 -69.183)" gradientUnits="userSpaceOnUse">
			<stop  offset="0" style="stop-color:#BCB713"/>
			<stop  offset="1" style="stop-color:#F5EB0F"/>
		</radialGradient>
		<path fill="url(#SVGID_1_)" d="M165.856,28.167c-63.047,0-115.076,48.024-121.46,109.411l19.312-19.589l16.799,16.56l0.51,0.504
			c7.223-40.287,42.506-70.964,84.839-70.964"/>
	</g>
</g>
</svg>
